<?xml version="1.0" standalone="no"?>
<!DOCTYPE svg PUBLIC "-//W3C//DTD SVG 1.1//EN" "http://www.w3.org/Graphics/SVG/1.1/DTD/svg11.dtd" >
<svg xmlns="http://www.w3.org/2000/svg">
<metadata>
Copyright (c) 2009 by Fontsmith Ltd. All rights reserved. This font may not be altered in any way without prior permission of Fontsmith Ltd.
</metadata>
<defs>
<font id="TelefonicaWeb-Light" horiz-adv-x="0" >
  <font-face 
    font-family="Telefonica Web Light"
    font-weight="300"
    font-stretch="normal"
    units-per-em="1000"
    panose-1="0 0 4 0 0 0 0 0 0 0"
    ascent="750"
    descent="-250"
    x-height="490"
    cap-height="684"
    bbox="-384 -253 1182 1229"
    underline-thickness="45"
    underline-position="-56"
    unicode-range="U+000D-FB02"
  />
<missing-glyph horiz-adv-x="642" 
d="M86 660h470v-660h-470v660zM480 612h-320l161 -240zM293 331l-159 239v-480zM510 570l-160 -239l160 -241v480zM480 49l-159 239l-161 -239h320z" />
    <glyph glyph-name="fi" unicode="fi" horiz-adv-x="508" 
d="M108 444h-90v35l90 11v71q0 44 10.5 75.5t32.5 53.5q44 42 133 42q39 0 101 -10v-48q-47 7 -95 7q-69 0 -97 -29q-14 -14 -20.5 -37t-6.5 -60v-65h266v-490h-58v444h-208v-444h-58v444z" />
    <glyph glyph-name="fl" unicode="fl" horiz-adv-x="508" 
d="M108 444h-90v35l90 11v71q0 44 10.5 75.5t32.5 53.5q44 42 141 42q65 0 140 -11v-721h-58v677q-35 4 -84 4q-69 0 -97 -29q-14 -14 -20.5 -37t-6.5 -60v-65h134v-46h-134v-444h-58v444z" />
    <glyph glyph-name=".notdef" horiz-adv-x="642" 
d="M86 660h470v-660h-470v660zM480 612h-320l161 -240zM293 331l-159 239v-480zM510 570l-160 -239l160 -241v480zM480 49l-159 239l-161 -239h320z" />
    <glyph glyph-name="nonmarkingreturn" unicode="&#xd;" horiz-adv-x="200" 
 />
    <glyph glyph-name="space" unicode=" " horiz-adv-x="200" 
 />
    <glyph glyph-name="A" unicode="A" horiz-adv-x="560" 
d="M236 684h73l229 -684h-63l-61 187h-275l-57 -187h-60zM397 238l-125 384l-117 -384h242z" />
    <glyph glyph-name="Aacute" unicode="&#xc1;" horiz-adv-x="560" 
d="M236 684h73l229 -684h-63l-61 187h-275l-57 -187h-60zM397 238l-125 384l-117 -384h242zM175 783l171 157l38 -50l-186 -136z" />
    <glyph glyph-name="Abreve" unicode="&#x102;" horiz-adv-x="560" 
d="M236 684h73l229 -684h-63l-61 187h-275l-57 -187h-60zM397 238l-125 384l-117 -384h242zM178 800.5q-31 34.5 -33 91.5h39q7 -35 26.5 -54.5t59.5 -19.5t59.5 19.5t26.5 54.5h39q-2 -57 -33 -91.5t-92 -34.5t-92 34.5z" />
    <glyph glyph-name="uni01CD" unicode="&#x1cd;" horiz-adv-x="560" 
d="M236 684h73l229 -684h-63l-61 187h-275l-57 -187h-60zM397 238l-125 384l-117 -384h242zM126 904l22 20l124 -111l124 111l22 -20l-116 -142h-60z" />
    <glyph glyph-name="Acircumflex" unicode="&#xc2;" horiz-adv-x="560" 
d="M236 684h73l229 -684h-63l-61 187h-275l-57 -187h-60zM397 238l-125 384l-117 -384h242zM126 774l116 142h60l116 -142l-22 -20l-124 111l-124 -111z" />
    <glyph glyph-name="Adieresis" unicode="&#xc4;" horiz-adv-x="560" 
d="M236 684h73l229 -684h-63l-61 187h-275l-57 -187h-60zM397 238l-125 384l-117 -384h242zM138 834v9q0 41 39 41h8q39 0 39 -41v-9q0 -39 -39 -39h-8q-39 0 -39 39zM320 834v9q0 41 39 41h8q39 0 39 -41v-9q0 -39 -39 -39h-8q-39 0 -39 39z" />
    <glyph glyph-name="Agrave" unicode="&#xc0;" horiz-adv-x="560" 
d="M236 684h73l229 -684h-63l-61 187h-275l-57 -187h-60zM397 238l-125 384l-117 -384h242zM167 890l38 50l171 -157l-23 -29z" />
    <glyph glyph-name="Amacron" unicode="&#x100;" horiz-adv-x="560" 
d="M236 684h73l229 -684h-63l-61 187h-275l-57 -187h-60zM397 238l-125 384l-117 -384h242zM150 857h243v-49h-243v49z" />
    <glyph glyph-name="Aogonek" unicode="&#x104;" horiz-adv-x="560" 
d="M403 -186.5q-25 24.5 -25 65.5q0 42 26 77t66 57l-56 174h-275l-57 -187h-60l214 684h73l229 -684h-5q-36 0 -64 -28q-40 -41 -40 -86q0 -27 15.5 -40.5t43.5 -13.5q18 0 63 6v-38q-46 -11 -76 -11q-47 0 -72 24.5zM397 238l-125 384l-117 -384h242z" />
    <glyph glyph-name="Aring" unicode="&#xc5;" horiz-adv-x="560" 
d="M236 684h73l229 -684h-63l-61 187h-275l-57 -187h-60zM397 238l-125 384l-117 -384h242zM191.5 788.5q-28.5 27.5 -28.5 76.5v4q0 49 28.5 76.5t78.5 27.5h4q50 0 78.5 -27.5t28.5 -76.5v-4q0 -49 -28.5 -76.5t-78.5 -27.5h-4q-50 0 -78.5 27.5zM273 806q59 0 59 59v4
q0 59 -59 59h-3q-58 0 -58 -59v-4q0 -59 58 -59h3z" />
    <glyph glyph-name="Aringacute" unicode="&#x1fa;" horiz-adv-x="560" 
d="M236 684h73l229 -684h-63l-61 187h-275l-57 -187h-60zM397 238l-125 384l-117 -384h242zM191.5 788.5q-28.5 27.5 -28.5 76.5v4q0 49 28.5 76.5t78.5 27.5h4q50 0 78.5 -27.5t28.5 -76.5v-4q0 -49 -28.5 -76.5t-78.5 -27.5h-4q-50 0 -78.5 27.5zM273 806q59 0 59 59v4
q0 59 -59 59h-3q-58 0 -58 -59v-4q0 -59 58 -59h3zM175 1072l171 157l38 -50l-186 -136z" />
    <glyph glyph-name="Atilde" unicode="&#xc3;" horiz-adv-x="560" 
d="M236 684h73l229 -684h-63l-61 187h-275l-57 -187h-60zM397 238l-125 384l-117 -384h242zM302.5 796q-16.5 6 -37.5 16q-15 7 -30 12.5t-27 5.5q-15 0 -24.5 -9.5t-17.5 -29.5l-36 7q5 42 25 65t51 23q18 0 34 -5.5t39 -16.5q19 -9 31.5 -13.5t24.5 -4.5q15 0 24.5 9.5
t17.5 29.5l36 -7q-5 -42 -25 -65t-51 -23q-18 0 -34.5 6z" />
    <glyph glyph-name="AE" unicode="&#xc6;" horiz-adv-x="853" 
d="M402 684h389l-7 -52h-293v-259h241v-53h-241v-268h308v-52h-368v182h-255l-104 -182h-62zM431 233v395l-226 -395h226z" />
    <glyph glyph-name="AEacute" unicode="&#x1fc;" horiz-adv-x="853" 
d="M402 684h389l-7 -52h-293v-259h241v-53h-241v-268h308v-52h-368v182h-255l-104 -182h-62zM431 233v395l-226 -395h226zM489 783l171 157l38 -50l-186 -136z" />
    <glyph glyph-name="B" unicode="B" horiz-adv-x="572" 
d="M88 684h181q63 0 101 -12t63 -39q15 -16 25 -46.5t10 -64.5q0 -61 -25 -100.5t-73 -56.5q70 -7 106 -54.5t36 -122.5q0 -44 -12 -80t-30 -56q-28 -29 -66.5 -40.5t-117.5 -11.5h-198v684zM254 383q83 0 119 32t36 95q0 64 -33 94q-16 15 -45 21.5t-80 6.5h-103v-249h106z
M259 52q70 0 103 6.5t54 26.5q35 32 35 100q0 73 -39 112q-21 20 -51.5 27.5t-92.5 7.5h-120v-280h111z" />
    <glyph glyph-name="C" unicode="C" horiz-adv-x="539" 
d="M133 71q-73 85 -73 267q0 176 72.5 267.5t211.5 91.5q39 0 79 -7t71 -19l-11 -49q-68 21 -130 21q-117 0 -174 -75t-57 -228q0 -106 23.5 -171t76.5 -96.5t141 -31.5q50 0 121 15l8 -50q-32 -9 -70 -14.5t-71 -5.5q-145 0 -218 85z" />
    <glyph glyph-name="Cacute" unicode="&#x106;" horiz-adv-x="539" 
d="M133 71q-73 85 -73 267q0 176 72.5 267.5t211.5 91.5q39 0 79 -7t71 -19l-11 -49q-68 21 -130 21q-117 0 -174 -75t-57 -228q0 -106 23.5 -171t76.5 -96.5t141 -31.5q50 0 121 15l8 -50q-32 -9 -70 -14.5t-71 -5.5q-145 0 -218 85zM242 783l171 157l38 -50l-186 -136z
" />
    <glyph glyph-name="Ccaron" unicode="&#x10c;" horiz-adv-x="539" 
d="M133 71q-73 85 -73 267q0 176 72.5 267.5t211.5 91.5q39 0 79 -7t71 -19l-11 -49q-68 21 -130 21q-117 0 -174 -75t-57 -228q0 -106 23.5 -171t76.5 -96.5t141 -31.5q50 0 121 15l8 -50q-32 -9 -70 -14.5t-71 -5.5q-145 0 -218 85zM193 904l22 20l124 -111l124 111
l22 -20l-116 -142h-60z" />
    <glyph glyph-name="Ccedilla" unicode="&#xc7;" horiz-adv-x="539" 
d="M297 -202v40q35 -7 63 -7q50 0 50 29q0 14 -12.5 21.5t-36.5 15.5q-29 9 -45 20t-16 33q0 20 12 38q-125 11 -188.5 96t-63.5 254q0 176 72.5 267.5t211.5 91.5q39 0 79 -7t71 -19l-11 -49q-68 21 -130 21q-117 0 -174 -75t-57 -228q0 -106 23.5 -171t76.5 -96.5
t141 -31.5q50 0 121 15l8 -50q-32 -9 -70 -14.5t-71 -5.5h-4q-3 -9 -3 -17q0 -13 10.5 -20t33.5 -15q33 -10 51 -24.5t18 -47.5q0 -34 -24 -53.5t-68 -19.5q-33 0 -68 9z" />
    <glyph glyph-name="Ccircumflex" unicode="&#x108;" horiz-adv-x="539" 
d="M133 71q-73 85 -73 267q0 176 72.5 267.5t211.5 91.5q39 0 79 -7t71 -19l-11 -49q-68 21 -130 21q-117 0 -174 -75t-57 -228q0 -106 23.5 -171t76.5 -96.5t141 -31.5q50 0 121 15l8 -50q-32 -9 -70 -14.5t-71 -5.5q-145 0 -218 85zM193 774l116 142h60l116 -142l-22 -20
l-124 111l-124 -111z" />
    <glyph glyph-name="Cdotaccent" unicode="&#x10a;" horiz-adv-x="539" 
d="M133 71q-73 85 -73 267q0 176 72.5 267.5t211.5 91.5q39 0 79 -7t71 -19l-11 -49q-68 21 -130 21q-117 0 -174 -75t-57 -228q0 -106 23.5 -171t76.5 -96.5t141 -31.5q50 0 121 15l8 -50q-32 -9 -70 -14.5t-71 -5.5q-145 0 -218 85zM293 831v10q0 43 42 43h8q42 0 42 -43
v-10q0 -43 -42 -43h-8q-42 0 -42 43z" />
    <glyph glyph-name="D" unicode="D" horiz-adv-x="628" 
d="M88 684h161q91 0 149 -17t96 -57q74 -81 74 -265q0 -103 -24 -175.5t-64 -109.5q-64 -60 -207 -60h-185v684zM267 53q119 0 171 51q36 35 52.5 94t16.5 147q0 84 -15 140t-48 90q-30 30 -77.5 43t-118.5 13h-100v-578h119z" />
    <glyph glyph-name="Eth" unicode="&#xd0;" horiz-adv-x="628" 
d="M88 319h-84v45l84 10v310h161q91 0 149 -17t96 -57q74 -81 74 -265q0 -103 -24 -175.5t-64 -109.5q-64 -60 -207 -60h-185v319zM267 53q119 0 171 51q36 35 52.5 94t16.5 147q0 84 -15 140t-48 90q-30 30 -77.5 43t-118.5 13h-100v-257h162v-55h-162v-266h119z" />
    <glyph glyph-name="Dcaron" unicode="&#x10e;" horiz-adv-x="628" 
d="M88 684h161q91 0 149 -17t96 -57q74 -81 74 -265q0 -103 -24 -175.5t-64 -109.5q-64 -60 -207 -60h-185v684zM267 53q119 0 171 51q36 35 52.5 94t16.5 147q0 84 -15 140t-48 90q-30 30 -77.5 43t-118.5 13h-100v-578h119zM168 904l22 20l124 -111l124 111l22 -20
l-116 -142h-60z" />
    <glyph glyph-name="Dcroat" unicode="&#x110;" horiz-adv-x="628" 
d="M88 319h-84v45l84 10v310h161q91 0 149 -17t96 -57q74 -81 74 -265q0 -103 -24 -175.5t-64 -109.5q-64 -60 -207 -60h-185v319zM267 53q119 0 171 51q36 35 52.5 94t16.5 147q0 84 -15 140t-48 90q-30 30 -77.5 43t-118.5 13h-100v-257h162v-55h-162v-266h119z" />
    <glyph glyph-name="E" unicode="E" horiz-adv-x="510" 
d="M88 684h360l-7 -52h-293v-259h241v-53h-241v-268h308v-52h-368v684z" />
    <glyph glyph-name="Eacute" unicode="&#xc9;" horiz-adv-x="510" 
d="M88 684h360l-7 -52h-293v-259h241v-53h-241v-268h308v-52h-368v684zM187 783l171 157l38 -50l-186 -136z" />
    <glyph glyph-name="Ebreve" unicode="&#x114;" horiz-adv-x="510" 
d="M88 684h360l-7 -52h-293v-259h241v-53h-241v-268h308v-52h-368v684zM190 800.5q-31 34.5 -33 91.5h39q7 -35 26.5 -54.5t59.5 -19.5t59.5 19.5t26.5 54.5h39q-2 -57 -33 -91.5t-92 -34.5t-92 34.5z" />
    <glyph glyph-name="Ecaron" unicode="&#x11a;" horiz-adv-x="510" 
d="M88 684h360l-7 -52h-293v-259h241v-53h-241v-268h308v-52h-368v684zM138 904l22 20l124 -111l124 111l22 -20l-116 -142h-60z" />
    <glyph glyph-name="Ecircumflex" unicode="&#xca;" horiz-adv-x="510" 
d="M88 684h360l-7 -52h-293v-259h241v-53h-241v-268h308v-52h-368v684zM138 774l116 142h60l116 -142l-22 -20l-124 111l-124 -111z" />
    <glyph glyph-name="Edieresis" unicode="&#xcb;" horiz-adv-x="510" 
d="M88 684h360l-7 -52h-293v-259h241v-53h-241v-268h308v-52h-368v684zM150 834v9q0 41 39 41h8q39 0 39 -41v-9q0 -39 -39 -39h-8q-39 0 -39 39zM332 834v9q0 41 39 41h8q39 0 39 -41v-9q0 -39 -39 -39h-8q-39 0 -39 39z" />
    <glyph glyph-name="Edotaccent" unicode="&#x116;" horiz-adv-x="510" 
d="M88 684h360l-7 -52h-293v-259h241v-53h-241v-268h308v-52h-368v684zM238 831v10q0 43 42 43h8q42 0 42 -43v-10q0 -43 -42 -43h-8q-42 0 -42 43z" />
    <glyph glyph-name="Egrave" unicode="&#xc8;" horiz-adv-x="510" 
d="M88 684h360l-7 -52h-293v-259h241v-53h-241v-268h308v-52h-368v684zM179 890l38 50l171 -157l-23 -29z" />
    <glyph glyph-name="Emacron" unicode="&#x112;" horiz-adv-x="510" 
d="M88 684h360l-7 -52h-293v-259h241v-53h-241v-268h308v-52h-368v684zM162 857h243v-49h-243v49z" />
    <glyph glyph-name="Eogonek" unicode="&#x118;" horiz-adv-x="510" 
d="M313 -186.5q-25 24.5 -25 65.5q0 37 19 68t51 53h-270v684h360l-7 -52h-293v-259h241v-53h-241v-268h308v-52h-18q-31 0 -59 -28q-40 -41 -40 -86q0 -27 15.5 -40.5t43.5 -13.5q18 0 63 6v-38q-46 -11 -76 -11q-47 0 -72 24.5z" />
    <glyph glyph-name="F" unicode="F" horiz-adv-x="472" 
d="M88 684h351l-7 -52h-284v-259h231v-53h-231v-320h-60v684z" />
    <glyph glyph-name="G" unicode="G" horiz-adv-x="614" 
d="M138.5 69q-78.5 83 -78.5 264q0 176 78 270t225 94q41 0 83 -6.5t74 -17.5l-11 -48q-70 19 -139 19q-128 0 -188 -76.5t-60 -229.5q0 -162 60.5 -230t186.5 -68q24 0 55 2.5t51 6.5v237h-121v51h178v-328q-29 -10 -79 -16.5t-88 -6.5q-148 0 -226.5 83z" />
    <glyph glyph-name="Gbreve" unicode="&#x11e;" horiz-adv-x="614" 
d="M138.5 69q-78.5 83 -78.5 264q0 176 78 270t225 94q41 0 83 -6.5t74 -17.5l-11 -48q-70 19 -139 19q-128 0 -188 -76.5t-60 -229.5q0 -162 60.5 -230t186.5 -68q24 0 55 2.5t51 6.5v237h-121v51h178v-328q-29 -10 -79 -16.5t-88 -6.5q-148 0 -226.5 83zM269 800.5
q-31 34.5 -33 91.5h39q7 -35 26.5 -54.5t59.5 -19.5t59.5 19.5t26.5 54.5h39q-2 -57 -33 -91.5t-92 -34.5t-92 34.5z" />
    <glyph glyph-name="Gcircumflex" unicode="&#x11c;" horiz-adv-x="614" 
d="M138.5 69q-78.5 83 -78.5 264q0 176 78 270t225 94q41 0 83 -6.5t74 -17.5l-11 -48q-70 19 -139 19q-128 0 -188 -76.5t-60 -229.5q0 -162 60.5 -230t186.5 -68q24 0 55 2.5t51 6.5v237h-121v51h178v-328q-29 -10 -79 -16.5t-88 -6.5q-148 0 -226.5 83zM217 774l116 142
h60l116 -142l-22 -20l-124 111l-124 -111z" />
    <glyph glyph-name="Gcommaaccent" unicode="&#x122;" horiz-adv-x="614" 
d="M138.5 69q-78.5 83 -78.5 264q0 176 78 270t225 94q41 0 83 -6.5t74 -17.5l-11 -48q-70 19 -139 19q-128 0 -188 -76.5t-60 -229.5q0 -162 60.5 -230t186.5 -68q24 0 55 2.5t51 6.5v237h-121v51h178v-328q-29 -10 -79 -16.5t-88 -6.5q-148 0 -226.5 83zM342 -152
q-18 5 -25 14.5t-7 23.5v5q0 18 11 27t26 9h4q18 -1 26.5 -13t8.5 -39q0 -29 -4.5 -63t-13.5 -60h-26v96z" />
    <glyph glyph-name="Gdotaccent" unicode="&#x120;" horiz-adv-x="614" 
d="M138.5 69q-78.5 83 -78.5 264q0 176 78 270t225 94q41 0 83 -6.5t74 -17.5l-11 -48q-70 19 -139 19q-128 0 -188 -76.5t-60 -229.5q0 -162 60.5 -230t186.5 -68q24 0 55 2.5t51 6.5v237h-121v51h178v-328q-29 -10 -79 -16.5t-88 -6.5q-148 0 -226.5 83zM317 831v10
q0 43 42 43h8q42 0 42 -43v-10q0 -43 -42 -43h-8q-42 0 -42 43z" />
    <glyph glyph-name="H" unicode="H" horiz-adv-x="641" 
d="M88 684h60v-311h346v311h59v-684h-59v320h-346v-320h-60v684z" />
    <glyph glyph-name="Hbar" unicode="&#x126;" horiz-adv-x="661" 
d="M98 508h-70v50h70v126h60v-126h346v126h59v-126h70v-50h-70v-508h-59v320h-346v-320h-60v508zM504 373v135h-346v-135h346z" />
    <glyph glyph-name="Hcircumflex" unicode="&#x124;" horiz-adv-x="641" 
d="M88 684h60v-311h346v311h59v-684h-59v320h-346v-320h-60v684zM175 774l116 142h60l116 -142l-22 -20l-124 111l-124 -111z" />
    <glyph glyph-name="I" unicode="I" horiz-adv-x="240" 
d="M90 684h60v-684h-60v684z" />
    <glyph glyph-name="IJ" unicode="&#x132;" horiz-adv-x="591" 
d="M90 684h60v-684h-60v684zM284 -9l-6 52q24 -3 59 -3q62 0 87 22q16 14 21 38t5 78v506h59v-501q0 -68 -9 -101.5t-28 -54.5q-38 -41 -128 -41q-32 0 -60 5z" />
    <glyph glyph-name="Iacute" unicode="&#xcd;" horiz-adv-x="240" 
d="M90 684h60v-684h-60v684zM23 783l171 157l38 -50l-186 -136z" />
    <glyph glyph-name="Ibreve" unicode="&#x12c;" horiz-adv-x="240" 
d="M90 684h60v-684h-60v684zM26 800.5q-31 34.5 -33 91.5h39q7 -35 26.5 -54.5t59.5 -19.5t59.5 19.5t26.5 54.5h39q-2 -57 -33 -91.5t-92 -34.5t-92 34.5z" />
    <glyph glyph-name="Icircumflex" unicode="&#xce;" horiz-adv-x="240" 
d="M90 684h60v-684h-60v684zM-26 774l116 142h60l116 -142l-22 -20l-124 111l-124 -111z" />
    <glyph glyph-name="Idieresis" unicode="&#xcf;" horiz-adv-x="240" 
d="M90 684h60v-684h-60v684zM-14 834v9q0 41 39 41h8q39 0 39 -41v-9q0 -39 -39 -39h-8q-39 0 -39 39zM168 834v9q0 41 39 41h8q39 0 39 -41v-9q0 -39 -39 -39h-8q-39 0 -39 39z" />
    <glyph glyph-name="Idotaccent" unicode="&#x130;" horiz-adv-x="240" 
d="M90 684h60v-684h-60v684zM74 831v10q0 43 42 43h8q42 0 42 -43v-10q0 -43 -42 -43h-8q-42 0 -42 43z" />
    <glyph glyph-name="Igrave" unicode="&#xcc;" horiz-adv-x="240" 
d="M90 684h60v-684h-60v684zM15 890l38 50l171 -157l-23 -29z" />
    <glyph glyph-name="Imacron" unicode="&#x12a;" horiz-adv-x="240" 
d="M90 684h60v-684h-60v684zM-2 857h243v-49h-243v49z" />
    <glyph glyph-name="Iogonek" unicode="&#x12e;" horiz-adv-x="240" 
d="M25 -186.5q-25 24.5 -25 65.5q0 42 26.5 80.5t63.5 54.5v670h60v-684h-3q-18 0 -30.5 -5.5t-27.5 -20.5q-38 -39 -38 -88q0 -27 15.5 -40.5t43.5 -13.5q18 0 63 6v-38q-46 -11 -76 -11q-47 0 -72 24.5z" />
    <glyph glyph-name="Itilde" unicode="&#x128;" horiz-adv-x="240" 
d="M90 684h60v-684h-60v684zM150.5 796q-16.5 6 -37.5 16q-15 7 -30 12.5t-27 5.5q-15 0 -24.5 -9.5t-17.5 -29.5l-36 7q5 42 25 65t51 23q18 0 34 -5.5t39 -16.5q19 -9 31.5 -13.5t24.5 -4.5q15 0 24.5 9.5t17.5 29.5l36 -7q-5 -42 -25 -65t-51 -23q-18 0 -34.5 6z" />
    <glyph glyph-name="J" unicode="J" horiz-adv-x="351" 
d="M44 -9l-6 52q24 -3 59 -3q62 0 87 22q16 14 21 38t5 78v506h59v-501q0 -68 -9 -101.5t-28 -54.5q-38 -41 -128 -41q-32 0 -60 5z" />
    <glyph glyph-name="Jcircumflex" unicode="&#x134;" horiz-adv-x="351" 
d="M44 -9l-6 52q24 -3 59 -3q62 0 87 22q16 14 21 38t5 78v506h59v-501q0 -68 -9 -101.5t-28 -54.5q-38 -41 -128 -41q-32 0 -60 5zM94 774l116 142h60l116 -142l-22 -20l-124 111l-124 -111z" />
    <glyph glyph-name="K" unicode="K" horiz-adv-x="565" 
d="M88 684h60v-379l303 379h66l-228 -281l244 -403h-67l-214 358l-104 -129v-229h-60v684z" />
    <glyph glyph-name="Kcommaaccent" unicode="&#x136;" horiz-adv-x="565" 
d="M88 684h60v-379l303 379h66l-228 -281l244 -403h-67l-214 358l-104 -129v-229h-60v684zM291 -152q-18 5 -25 14.5t-7 23.5v5q0 18 11 27t26 9h4q18 -1 26.5 -13t8.5 -39q0 -29 -4.5 -63t-13.5 -60h-26v96z" />
    <glyph glyph-name="L" unicode="L" horiz-adv-x="484" 
d="M88 684h60v-632h296v-52h-356v684z" />
    <glyph glyph-name="Lacute" unicode="&#x139;" horiz-adv-x="484" 
d="M88 684h60v-632h296v-52h-356v684zM20 783l171 157l38 -50l-186 -136z" />
    <glyph glyph-name="Lcaron" unicode="&#x13d;" horiz-adv-x="484" 
d="M88 684h60v-632h296v-52h-356v684zM267 618q-18 5 -25 14.5t-7 23.5v5q0 18 11 27t26 9h4q18 -1 26.5 -13t8.5 -39q0 -29 -4.5 -63t-13.5 -60h-26v96z" />
    <glyph glyph-name="Lcommaaccent" unicode="&#x13b;" horiz-adv-x="484" 
d="M88 684h60v-632h296v-52h-356v684zM274 -152q-18 5 -25 14.5t-7 23.5v5q0 18 11 27t26 9h4q18 -1 26.5 -13t8.5 -39q0 -29 -4.5 -63t-13.5 -60h-26v96z" />
    <glyph glyph-name="Ldot" unicode="&#x13f;" horiz-adv-x="484" 
d="M88 684h60v-632h296v-52h-356v684zM276 369v10q0 43 42 43h8q42 0 42 -43v-10q0 -43 -42 -43h-8q-42 0 -42 43z" />
    <glyph glyph-name="Lslash" unicode="&#x141;" horiz-adv-x="484" 
d="M88 256l-75 -49l-25 42l100 65v370h60v-330l117 77l25 -42l-142 -93v-244h296v-52h-356v256z" />
    <glyph glyph-name="M" unicode="M" horiz-adv-x="783" 
d="M88 684h54l248 -476l255 476h50v-684h-56v566l-225 -418h-53l-219 421v-569h-54v684z" />
    <glyph glyph-name="N" unicode="N" horiz-adv-x="666" 
d="M88 684h41l395 -575v575h54v-684h-45l-391 570v-570h-54v684z" />
    <glyph glyph-name="Nacute" unicode="&#x143;" horiz-adv-x="666" 
d="M88 684h41l395 -575v575h54v-684h-45l-391 570v-570h-54v684zM245 783l171 157l38 -50l-186 -136z" />
    <glyph glyph-name="Ncaron" unicode="&#x147;" horiz-adv-x="666" 
d="M88 684h41l395 -575v575h54v-684h-45l-391 570v-570h-54v684zM196 904l22 20l124 -111l124 111l22 -20l-116 -142h-60z" />
    <glyph glyph-name="Ncommaaccent" unicode="&#x145;" horiz-adv-x="666" 
d="M88 684h41l395 -575v575h54v-684h-45l-391 570v-570h-54v684zM327 -152q-18 5 -25 14.5t-7 23.5v5q0 18 11 27t26 9h4q18 -1 26.5 -13t8.5 -39q0 -29 -4.5 -63t-13.5 -60h-26v96z" />
    <glyph glyph-name="Eng" unicode="&#x14a;" horiz-adv-x="666" 
d="M353 -234l-1 47q24 -3 59 -3q62 0 87 22q16 14 21 38t5 78v65l-382 557v-570h-54v684h41l395 -575v575h54v-726q0 -68 -9 -101.5t-28 -54.5q-38 -41 -128 -41q-32 0 -60 5z" />
    <glyph glyph-name="Ntilde" unicode="&#xd1;" horiz-adv-x="666" 
d="M373 796q-17 6 -38 16q-15 7 -30 12.5t-27 5.5q-15 0 -24.5 -9.5t-17.5 -29.5l-36 7q5 42 25 65t51 23q18 0 34 -5.5t39 -16.5q19 -9 31.5 -13.5t24.5 -4.5q15 0 24.5 9.5t17.5 29.5l36 -7q-5 -42 -25 -65t-51 -23q-17 0 -34 6zM88 684h41l395 -575v575h54v-684h-45
l-391 570v-570h-54v684z" />
    <glyph glyph-name="O" unicode="O" horiz-adv-x="640" 
d="M124.5 76.5q-64.5 90.5 -64.5 264.5t64.5 265t195.5 91t195.5 -91t64.5 -265t-64.5 -264.5t-195.5 -90.5t-195.5 90.5zM472 119q46 76 46 222t-46 222.5t-152 76.5t-152 -76.5t-46 -222.5t46 -222t152 -76t152 76z" />
    <glyph glyph-name="Oacute" unicode="&#xd3;" horiz-adv-x="640" 
d="M223 783l171 157l38 -50l-186 -136zM124.5 76.5q-64.5 90.5 -64.5 264.5t64.5 265t195.5 91t195.5 -91t64.5 -265t-64.5 -264.5t-195.5 -90.5t-195.5 90.5zM472 119q46 76 46 222t-46 222.5t-152 76.5t-152 -76.5t-46 -222.5t46 -222t152 -76t152 76z" />
    <glyph glyph-name="Obreve" unicode="&#x14e;" horiz-adv-x="640" 
d="M124.5 76.5q-64.5 90.5 -64.5 264.5t64.5 265t195.5 91t195.5 -91t64.5 -265t-64.5 -264.5t-195.5 -90.5t-195.5 90.5zM472 119q46 76 46 222t-46 222.5t-152 76.5t-152 -76.5t-46 -222.5t46 -222t152 -76t152 76zM226 800.5q-31 34.5 -33 91.5h39q7 -35 26.5 -54.5
t59.5 -19.5t59.5 19.5t26.5 54.5h39q-2 -57 -33 -91.5t-92 -34.5t-92 34.5z" />
    <glyph glyph-name="Ocircumflex" unicode="&#xd4;" horiz-adv-x="640" 
d="M124.5 76.5q-64.5 90.5 -64.5 264.5t64.5 265t195.5 91t195.5 -91t64.5 -265t-64.5 -264.5t-195.5 -90.5t-195.5 90.5zM472 119q46 76 46 222t-46 222.5t-152 76.5t-152 -76.5t-46 -222.5t46 -222t152 -76t152 76zM174 774l116 142h60l116 -142l-22 -20l-124 111
l-124 -111z" />
    <glyph glyph-name="Odieresis" unicode="&#xd6;" horiz-adv-x="640" 
d="M124.5 76.5q-64.5 90.5 -64.5 264.5t64.5 265t195.5 91t195.5 -91t64.5 -265t-64.5 -264.5t-195.5 -90.5t-195.5 90.5zM472 119q46 76 46 222t-46 222.5t-152 76.5t-152 -76.5t-46 -222.5t46 -222t152 -76t152 76zM186 834v9q0 41 39 41h8q39 0 39 -41v-9q0 -39 -39 -39
h-8q-39 0 -39 39zM368 834v9q0 41 39 41h8q39 0 39 -41v-9q0 -39 -39 -39h-8q-39 0 -39 39z" />
    <glyph glyph-name="Ograve" unicode="&#xd2;" horiz-adv-x="640" 
d="M124.5 76.5q-64.5 90.5 -64.5 264.5t64.5 265t195.5 91t195.5 -91t64.5 -265t-64.5 -264.5t-195.5 -90.5t-195.5 90.5zM472 119q46 76 46 222t-46 222.5t-152 76.5t-152 -76.5t-46 -222.5t46 -222t152 -76t152 76zM215 890l38 50l171 -157l-23 -29z" />
    <glyph glyph-name="Ohungarumlaut" unicode="&#x150;" horiz-adv-x="640" 
d="M124.5 76.5q-64.5 90.5 -64.5 264.5t64.5 265t195.5 91t195.5 -91t64.5 -265t-64.5 -264.5t-195.5 -90.5t-195.5 90.5zM472 119q46 76 46 222t-46 222.5t-152 76.5t-152 -76.5t-46 -222.5t46 -222t152 -76t152 76zM163 786l141 185l46 -43l-159 -166zM343 786l141 185
l46 -43l-159 -166z" />
    <glyph glyph-name="Omacron" unicode="&#x14c;" horiz-adv-x="640" 
d="M124.5 76.5q-64.5 90.5 -64.5 264.5t64.5 265t195.5 91t195.5 -91t64.5 -265t-64.5 -264.5t-195.5 -90.5t-195.5 90.5zM472 119q46 76 46 222t-46 222.5t-152 76.5t-152 -76.5t-46 -222.5t46 -222t152 -76t152 76zM198 857h243v-49h-243v49z" />
    <glyph glyph-name="Oslash" unicode="&#xd8;" horiz-adv-x="640" 
d="M173 27q-113 82 -113 314q0 174 64.5 265t195.5 91q60 0 104 -19l31 79h53l-40 -103q112 -82 112 -313q0 -174 -64.5 -264.5t-195.5 -90.5q-58 0 -103 18l-30 -78h-53zM403 624q-37 16 -83 16q-106 0 -152 -76.5t-46 -222.5q0 -92 17.5 -156.5t56.5 -99.5zM472 119
q46 76 46 222q0 91 -17.5 155t-55.5 100l-207 -538q35 -15 82 -15q106 0 152 76z" />
    <glyph glyph-name="Oslashacute" unicode="&#x1fe;" horiz-adv-x="640" 
d="M173 27q-113 82 -113 314q0 174 64.5 265t195.5 91q60 0 104 -19l31 79h53l-40 -103q112 -82 112 -313q0 -174 -64.5 -264.5t-195.5 -90.5q-58 0 -103 18l-30 -78h-53zM403 624q-37 16 -83 16q-106 0 -152 -76.5t-46 -222.5q0 -92 17.5 -156.5t56.5 -99.5zM472 119
q46 76 46 222q0 91 -17.5 155t-55.5 100l-207 -538q35 -15 82 -15q106 0 152 76zM223 783l171 157l38 -50l-186 -136z" />
    <glyph glyph-name="Otilde" unicode="&#xd5;" horiz-adv-x="640" 
d="M124.5 76.5q-64.5 90.5 -64.5 264.5t64.5 265t195.5 91t195.5 -91t64.5 -265t-64.5 -264.5t-195.5 -90.5t-195.5 90.5zM472 119q46 76 46 222t-46 222.5t-152 76.5t-152 -76.5t-46 -222.5t46 -222t152 -76t152 76zM350.5 796q-16.5 6 -37.5 16q-15 7 -30 12.5t-27 5.5
q-15 0 -24.5 -9.5t-17.5 -29.5l-36 7q5 42 25 65t51 23q18 0 34 -5.5t39 -16.5q19 -9 31.5 -13.5t24.5 -4.5q15 0 24.5 9.5t17.5 29.5l36 -7q-5 -42 -25 -65t-51 -23q-18 0 -34.5 6z" />
    <glyph glyph-name="OE" unicode="&#x152;" horiz-adv-x="878" 
d="M248.5 18q-61.5 18 -103.5 62q-40 42 -62.5 108.5t-22.5 153.5t22.5 153.5t62.5 108.5q42 44 103.5 62t154.5 18h413l-7 -52h-293v-259h241v-53h-241v-268h308v-52h-421q-93 0 -154.5 18zM456 52v580h-55q-79 0 -129 -14.5t-83 -50.5q-68 -73 -68 -225t68 -225
q33 -36 84 -50.5t130 -14.5h53z" />
    <glyph glyph-name="P" unicode="P" horiz-adv-x="557" 
d="M88 684h190q62 0 105.5 -12t73.5 -42q24 -24 37 -62.5t13 -87.5q0 -108 -51 -162q-52 -55 -158 -55h-150v-263h-60v684zM274 316q55 0 84.5 8.5t49.5 28.5t28.5 50t8.5 75q0 75 -34 114q-20 23 -51 31.5t-88 8.5h-124v-316h126z" />
    <glyph glyph-name="Thorn" unicode="&#xde;" horiz-adv-x="557" 
d="M88 684h60v-120h130q62 0 105.5 -12t73.5 -42q24 -24 37 -62.5t13 -87.5q0 -108 -51 -162q-52 -55 -158 -55h-150v-143h-60v684zM274 196q55 0 84.5 8.5t49.5 28.5t28.5 50t8.5 75q0 75 -34 114q-20 23 -51 31.5t-88 8.5h-124v-316h126z" />
    <glyph glyph-name="Q" unicode="Q" horiz-adv-x="640" 
d="M428 -30q-21 10 -40 13t-55 3h-14q-259 1 -259 355q0 174 64.5 265t195.5 91t195.5 -91t64.5 -265q0 -255 -137 -328q90 -17 159 -63q-3 -9 -12 -25t-15 -24zM472 119q46 76 46 222t-46 222.5t-152 76.5t-152 -76.5t-46 -222.5t46 -222t152 -76t152 76z" />
    <glyph glyph-name="R" unicode="R" horiz-adv-x="578" 
d="M88 684h191q68 0 112 -14t70 -44q48 -55 48 -146q0 -158 -131 -198l146 -282h-65l-137 271q-20 -2 -44 -2h-130v-269h-60v684zM282 322q86 0 123 36q42 41 42 123q0 38 -8.5 64.5t-26.5 46.5t-51 30t-86 10h-127v-310h134z" />
    <glyph glyph-name="Racute" unicode="&#x154;" horiz-adv-x="578" 
d="M88 684h191q68 0 112 -14t70 -44q48 -55 48 -146q0 -158 -131 -198l146 -282h-65l-137 271q-20 -2 -44 -2h-130v-269h-60v684zM282 322q86 0 123 36q42 41 42 123q0 38 -8.5 64.5t-26.5 46.5t-51 30t-86 10h-127v-310h134zM202 783l171 157l38 -50l-186 -136z" />
    <glyph glyph-name="Rcaron" unicode="&#x158;" horiz-adv-x="578" 
d="M88 684h191q68 0 112 -14t70 -44q48 -55 48 -146q0 -158 -131 -198l146 -282h-65l-137 271q-20 -2 -44 -2h-130v-269h-60v684zM282 322q86 0 123 36q42 41 42 123q0 38 -8.5 64.5t-26.5 46.5t-51 30t-86 10h-127v-310h134zM153 904l22 20l124 -111l124 111l22 -20
l-116 -142h-60z" />
    <glyph glyph-name="Rcommaaccent" unicode="&#x156;" horiz-adv-x="578" 
d="M88 684h191q68 0 112 -14t70 -44q48 -55 48 -146q0 -158 -131 -198l146 -282h-65l-137 271q-20 -2 -44 -2h-130v-269h-60v684zM282 322q86 0 123 36q42 41 42 123q0 38 -8.5 64.5t-26.5 46.5t-51 30t-86 10h-127v-310h134zM303 -152q-18 5 -25 14.5t-7 23.5v5q0 18 11 27
t26 9h4q18 -1 26.5 -13t8.5 -39q0 -29 -4.5 -63t-13.5 -60h-26v96z" />
    <glyph glyph-name="S" unicode="S" horiz-adv-x="523" 
d="M56 15l11 51q84 -27 164 -27q48 0 80 7.5t54 24.5q43 33 43 99q0 42 -22 70.5t-54 46t-89 42.5q-61 25 -98.5 46.5t-63 57t-25.5 89.5q0 73 44 119q55 56 170 56q82 0 157 -24l-11 -48q-69 19 -143 19q-160 0 -160 -116q0 -39 21 -65.5t51.5 -43.5t85.5 -41
q63 -27 101.5 -49.5t65.5 -61t27 -95.5q0 -93 -59.5 -139.5t-166.5 -46.5q-94 0 -183 29z" />
    <glyph glyph-name="Sacute" unicode="&#x15a;" horiz-adv-x="523" 
d="M56 15l11 51q84 -27 164 -27q48 0 80 7.5t54 24.5q43 33 43 99q0 42 -22 70.5t-54 46t-89 42.5q-61 25 -98.5 46.5t-63 57t-25.5 89.5q0 73 44 119q55 56 170 56q82 0 157 -24l-11 -48q-69 19 -143 19q-160 0 -160 -116q0 -39 21 -65.5t51.5 -43.5t85.5 -41
q63 -27 101.5 -49.5t65.5 -61t27 -95.5q0 -93 -59.5 -139.5t-166.5 -46.5q-94 0 -183 29zM165 783l171 157l38 -50l-186 -136z" />
    <glyph glyph-name="Scaron" unicode="&#x160;" horiz-adv-x="523" 
d="M56 15l11 51q84 -27 164 -27q48 0 80 7.5t54 24.5q43 33 43 99q0 42 -22 70.5t-54 46t-89 42.5q-61 25 -98.5 46.5t-63 57t-25.5 89.5q0 73 44 119q55 56 170 56q82 0 157 -24l-11 -48q-69 19 -143 19q-160 0 -160 -116q0 -39 21 -65.5t51.5 -43.5t85.5 -41
q63 -27 101.5 -49.5t65.5 -61t27 -95.5q0 -93 -59.5 -139.5t-166.5 -46.5q-94 0 -183 29zM116 904l22 20l124 -111l124 111l22 -20l-116 -142h-60z" />
    <glyph glyph-name="Scedilla" unicode="&#x15e;" horiz-adv-x="523" 
d="M204 -202v40q35 -7 63 -7q50 0 50 29q0 14 -12.5 21.5t-36.5 15.5q-29 9 -45 20t-16 33q0 19 11 36q-81 3 -162 29l11 51q84 -27 164 -27q48 0 80 7.5t54 24.5q43 33 43 99q0 42 -22 70.5t-54 46t-89 42.5q-61 25 -98.5 46.5t-63 57t-25.5 89.5q0 73 44 119q55 56 170 56
q82 0 157 -24l-11 -48q-69 19 -143 19q-160 0 -160 -116q0 -39 21 -65.5t51.5 -43.5t85.5 -41q63 -27 101.5 -49.5t65.5 -61t27 -95.5q0 -90 -55 -136.5t-156 -49.5q-3 -9 -3 -17q0 -13 10.5 -20t33.5 -15q33 -10 51 -24.5t18 -47.5q0 -34 -24 -53.5t-68 -19.5q-34 0 -68 9z
" />
    <glyph glyph-name="Scircumflex" unicode="&#x15c;" horiz-adv-x="523" 
d="M56 15l11 51q84 -27 164 -27q48 0 80 7.5t54 24.5q43 33 43 99q0 42 -22 70.5t-54 46t-89 42.5q-61 25 -98.5 46.5t-63 57t-25.5 89.5q0 73 44 119q55 56 170 56q82 0 157 -24l-11 -48q-69 19 -143 19q-160 0 -160 -116q0 -39 21 -65.5t51.5 -43.5t85.5 -41
q63 -27 101.5 -49.5t65.5 -61t27 -95.5q0 -93 -59.5 -139.5t-166.5 -46.5q-94 0 -183 29zM116 774l116 142h60l116 -142l-22 -20l-124 111l-124 -111z" />
    <glyph glyph-name="Scommaaccent" unicode="&#x218;" horiz-adv-x="523" 
d="M56 15l11 51q84 -27 164 -27q48 0 80 7.5t54 24.5q43 33 43 99q0 42 -22 70.5t-54 46t-89 42.5q-61 25 -98.5 46.5t-63 57t-25.5 89.5q0 73 44 119q55 56 170 56q82 0 157 -24l-11 -48q-69 19 -143 19q-160 0 -160 -116q0 -39 21 -65.5t51.5 -43.5t85.5 -41
q63 -27 101.5 -49.5t65.5 -61t27 -95.5q0 -93 -59.5 -139.5t-166.5 -46.5q-94 0 -183 29zM252 -152q-18 5 -25 14.5t-7 23.5v5q0 18 11 27t26 9h4q18 -1 26.5 -13t8.5 -39q0 -29 -4.5 -63t-13.5 -60h-26v96z" />
    <glyph glyph-name="T" unicode="T" horiz-adv-x="550" 
d="M246 632h-220v52h503l-7 -52h-216v-632h-60v632z" />
    <glyph glyph-name="Tbar" unicode="&#x166;" horiz-adv-x="550" 
d="M246 319h-134v48h134v265h-220v52h503l-7 -52h-216v-265h134v-48h-134v-319h-60v319z" />
    <glyph glyph-name="Tcaron" unicode="&#x164;" horiz-adv-x="550" 
d="M246 632h-220v52h503l-7 -52h-216v-632h-60v632zM129 904l22 20l124 -111l124 111l22 -20l-116 -142h-60z" />
    <glyph glyph-name="uni0162" unicode="&#x162;" horiz-adv-x="550" 
d="M246 632h-220v52h503l-7 -52h-216v-632h-60v632zM269 -152q-18 5 -25 14.5t-7 23.5v5q0 18 11 27t26 9h4q18 -1 26.5 -13t8.5 -39q0 -29 -4.5 -63t-13.5 -60h-26v96z" />
    <glyph glyph-name="uni021A" unicode="&#x21a;" horiz-adv-x="550" 
d="M246 632h-220v52h503l-7 -52h-216v-632h-60v632zM269 -152q-18 5 -25 14.5t-7 23.5v5q0 18 11 27t26 9h4q18 -1 26.5 -13t8.5 -39q0 -29 -4.5 -63t-13.5 -60h-26v96z" />
    <glyph glyph-name="U" unicode="U" horiz-adv-x="637" 
d="M140 46q-30 31 -44 76t-14 111v451h60v-448q0 -55 10.5 -92t33.5 -60q44 -42 139 -42q82 0 125 38q51 47 51 156v448h54v-456q0 -125 -61 -184q-60 -58 -172 -58q-124 0 -182 60z" />
    <glyph glyph-name="Uacute" unicode="&#xda;" horiz-adv-x="637" 
d="M140 46q-30 31 -44 76t-14 111v451h60v-448q0 -55 10.5 -92t33.5 -60q44 -42 139 -42q82 0 125 38q51 47 51 156v448h54v-456q0 -125 -61 -184q-60 -58 -172 -58q-124 0 -182 60zM222 783l171 157l38 -50l-186 -136z" />
    <glyph glyph-name="Ubreve" unicode="&#x16c;" horiz-adv-x="637" 
d="M140 46q-30 31 -44 76t-14 111v451h60v-448q0 -55 10.5 -92t33.5 -60q44 -42 139 -42q82 0 125 38q51 47 51 156v448h54v-456q0 -125 -61 -184q-60 -58 -172 -58q-124 0 -182 60zM225 800.5q-31 34.5 -33 91.5h39q7 -35 26.5 -54.5t59.5 -19.5t59.5 19.5t26.5 54.5h39
q-2 -57 -33 -91.5t-92 -34.5t-92 34.5z" />
    <glyph glyph-name="Ucircumflex" unicode="&#xdb;" horiz-adv-x="637" 
d="M140 46q-30 31 -44 76t-14 111v451h60v-448q0 -55 10.5 -92t33.5 -60q44 -42 139 -42q82 0 125 38q51 47 51 156v448h54v-456q0 -125 -61 -184q-60 -58 -172 -58q-124 0 -182 60zM173 774l116 142h60l116 -142l-22 -20l-124 111l-124 -111z" />
    <glyph glyph-name="Udieresis" unicode="&#xdc;" horiz-adv-x="637" 
d="M140 46q-30 31 -44 76t-14 111v451h60v-448q0 -55 10.5 -92t33.5 -60q44 -42 139 -42q82 0 125 38q51 47 51 156v448h54v-456q0 -125 -61 -184q-60 -58 -172 -58q-124 0 -182 60zM185 834v9q0 41 39 41h8q39 0 39 -41v-9q0 -39 -39 -39h-8q-39 0 -39 39zM367 834v9
q0 41 39 41h8q39 0 39 -41v-9q0 -39 -39 -39h-8q-39 0 -39 39z" />
    <glyph glyph-name="Ugrave" unicode="&#xd9;" horiz-adv-x="637" 
d="M140 46q-30 31 -44 76t-14 111v451h60v-448q0 -55 10.5 -92t33.5 -60q44 -42 139 -42q82 0 125 38q51 47 51 156v448h54v-456q0 -125 -61 -184q-60 -58 -172 -58q-124 0 -182 60zM214 890l38 50l171 -157l-23 -29z" />
    <glyph glyph-name="Uhungarumlaut" unicode="&#x170;" horiz-adv-x="637" 
d="M140 46q-30 31 -44 76t-14 111v451h60v-448q0 -55 10.5 -92t33.5 -60q44 -42 139 -42q82 0 125 38q51 47 51 156v448h54v-456q0 -125 -61 -184q-60 -58 -172 -58q-124 0 -182 60zM162 786l141 185l46 -43l-159 -166zM342 786l141 185l46 -43l-159 -166z" />
    <glyph glyph-name="Umacron" unicode="&#x16a;" horiz-adv-x="637" 
d="M140 46q-30 31 -44 76t-14 111v451h60v-448q0 -55 10.5 -92t33.5 -60q44 -42 139 -42q82 0 125 38q51 47 51 156v448h54v-456q0 -125 -61 -184q-60 -58 -172 -58q-124 0 -182 60zM197 857h243v-49h-243v49z" />
    <glyph glyph-name="Uogonek" unicode="&#x172;" horiz-adv-x="637" 
d="M279 -186.5q-25 24.5 -25 65.5q0 31 14.5 58.5t38.5 48.5q-113 4 -167 60q-30 31 -44 76t-14 111v451h60v-448q0 -55 10.5 -92t33.5 -60q44 -42 139 -42q82 0 125 38q51 47 51 156v448h54v-456q0 -125 -61 -184q-47 -46 -132 -55q-28 -24 -42.5 -51t-14.5 -52
q0 -27 15.5 -40.5t43.5 -13.5q18 0 63 6v-38q-46 -11 -76 -11q-47 0 -72 24.5z" />
    <glyph glyph-name="Uring" unicode="&#x16e;" horiz-adv-x="637" 
d="M140 46q-30 31 -44 76t-14 111v451h60v-448q0 -55 10.5 -92t33.5 -60q44 -42 139 -42q82 0 125 38q51 47 51 156v448h54v-456q0 -125 -61 -184q-60 -58 -172 -58q-124 0 -182 60zM238.5 788.5q-28.5 27.5 -28.5 76.5v4q0 49 28.5 76.5t78.5 27.5h4q50 0 78.5 -27.5
t28.5 -76.5v-4q0 -49 -28.5 -76.5t-78.5 -27.5h-4q-50 0 -78.5 27.5zM320 806q59 0 59 59v4q0 59 -59 59h-3q-58 0 -58 -59v-4q0 -59 58 -59h3z" />
    <glyph glyph-name="Utilde" unicode="&#x168;" horiz-adv-x="637" 
d="M140 46q-30 31 -44 76t-14 111v451h60v-448q0 -55 10.5 -92t33.5 -60q44 -42 139 -42q82 0 125 38q51 47 51 156v448h54v-456q0 -125 -61 -184q-60 -58 -172 -58q-124 0 -182 60zM349.5 796q-16.5 6 -37.5 16q-15 7 -30 12.5t-27 5.5q-15 0 -24.5 -9.5t-17.5 -29.5l-36 7
q5 42 25 65t51 23q18 0 34 -5.5t39 -16.5q19 -9 31.5 -13.5t24.5 -4.5q15 0 24.5 9.5t17.5 29.5l36 -7q-5 -42 -25 -65t-51 -23q-18 0 -34.5 6z" />
    <glyph glyph-name="V" unicode="V" horiz-adv-x="565" 
d="M26 684h61l201 -615l192 615h59l-216 -684h-71z" />
    <glyph glyph-name="W" unicode="W" horiz-adv-x="857" 
d="M26 684h60l170 -614l143 614h68l152 -606l156 606h56l-177 -684h-71l-150 600l-138 -600h-76z" />
    <glyph glyph-name="Wacute" unicode="&#x1e82;" horiz-adv-x="857" 
d="M26 684h60l170 -614l143 614h68l152 -606l156 606h56l-177 -684h-71l-150 600l-138 -600h-76zM336 783l171 157l38 -50l-186 -136z" />
    <glyph glyph-name="Wcircumflex" unicode="&#x174;" horiz-adv-x="857" 
d="M26 684h60l170 -614l143 614h68l152 -606l156 606h56l-177 -684h-71l-150 600l-138 -600h-76zM287 774l116 142h60l116 -142l-22 -20l-124 111l-124 -111z" />
    <glyph glyph-name="Wdieresis" unicode="&#x1e84;" horiz-adv-x="857" 
d="M26 684h60l170 -614l143 614h68l152 -606l156 606h56l-177 -684h-71l-150 600l-138 -600h-76zM299 834v9q0 41 39 41h8q39 0 39 -41v-9q0 -39 -39 -39h-8q-39 0 -39 39zM481 834v9q0 41 39 41h8q39 0 39 -41v-9q0 -39 -39 -39h-8q-39 0 -39 39z" />
    <glyph glyph-name="Wgrave" unicode="&#x1e80;" horiz-adv-x="857" 
d="M26 684h60l170 -614l143 614h68l152 -606l156 606h56l-177 -684h-71l-150 600l-138 -600h-76zM328 890l38 50l171 -157l-23 -29z" />
    <glyph glyph-name="X" unicode="X" horiz-adv-x="497" 
d="M219 341l-190 343h64l160 -298l156 298h62l-189 -341l191 -343h-65l-161 295l-156 -295h-65z" />
    <glyph glyph-name="Y" unicode="Y" horiz-adv-x="546" 
d="M238 281l-216 403h66l184 -351l191 351h61l-226 -406v-278h-60v281z" />
    <glyph glyph-name="Yacute" unicode="&#xdd;" horiz-adv-x="546" 
d="M238 281l-216 403h66l184 -351l191 351h61l-226 -406v-278h-60v281zM176 783l171 157l38 -50l-186 -136z" />
    <glyph glyph-name="Ycircumflex" unicode="&#x176;" horiz-adv-x="546" 
d="M238 281l-216 403h66l184 -351l191 351h61l-226 -406v-278h-60v281zM127 774l116 142h60l116 -142l-22 -20l-124 111l-124 -111z" />
    <glyph glyph-name="Ydieresis" unicode="&#x178;" horiz-adv-x="546" 
d="M238 281l-216 403h66l184 -351l191 351h61l-226 -406v-278h-60v281zM139 834v9q0 41 39 41h8q39 0 39 -41v-9q0 -39 -39 -39h-8q-39 0 -39 39zM321 834v9q0 41 39 41h8q39 0 39 -41v-9q0 -39 -39 -39h-8q-39 0 -39 39z" />
    <glyph glyph-name="Ygrave" unicode="&#x1ef2;" horiz-adv-x="546" 
d="M238 281l-216 403h66l184 -351l191 351h61l-226 -406v-278h-60v281zM143 890l38 50l171 -157l-23 -29z" />
    <glyph glyph-name="Z" unicode="Z" horiz-adv-x="544" 
d="M56 42l361 590h-360v52h431v-42l-361 -590h365v-52h-436v42z" />
    <glyph glyph-name="Zacute" unicode="&#x179;" horiz-adv-x="544" 
d="M56 42l361 590h-360v52h431v-42l-361 -590h365v-52h-436v42zM179 783l171 157l38 -50l-186 -136z" />
    <glyph glyph-name="Zcaron" unicode="&#x17d;" horiz-adv-x="544" 
d="M56 42l361 590h-360v52h431v-42l-361 -590h365v-52h-436v42zM130 904l22 20l124 -111l124 111l22 -20l-116 -142h-60z" />
    <glyph glyph-name="Zdotaccent" unicode="&#x17b;" horiz-adv-x="544" 
d="M56 42l361 590h-360v52h431v-42l-361 -590h365v-52h-436v42zM230 831v10q0 43 42 43h8q42 0 42 -43v-10q0 -43 -42 -43h-8q-42 0 -42 43z" />
    <glyph glyph-name="a" unicode="a" horiz-adv-x="489" 
d="M91 25q-45 39 -45 113q0 67 38 103q25 24 63 34.5t95 10.5h118v40q0 69 -29 98q-28 29 -99 29q-67 0 -137 -16l-4 48q73 19 146 19q99 0 141 -43q40 -42 40 -127v-334h-47l-3 33q-37 -22 -78 -34.5t-80 -12.5q-74 0 -119 39zM293 47q39 10 67 26v166h-109q-46 0 -74 -7
t-45 -21q-28 -24 -28 -72q0 -52 30 -77t86 -25q34 0 73 10z" />
    <glyph glyph-name="aacute" unicode="&#xe1;" horiz-adv-x="489" 
d="M91 25q-45 39 -45 113q0 67 38 103q25 24 63 34.5t95 10.5h118v40q0 69 -29 98q-28 29 -99 29q-67 0 -137 -16l-4 48q73 19 146 19q99 0 141 -43q40 -42 40 -127v-334h-47l-3 33q-37 -22 -78 -34.5t-80 -12.5q-74 0 -119 39zM293 47q39 10 67 26v166h-109q-46 0 -74 -7
t-45 -21q-28 -24 -28 -72q0 -52 30 -77t86 -25q34 0 73 10zM142 603l171 157l38 -50l-186 -136z" />
    <glyph glyph-name="abreve" unicode="&#x103;" horiz-adv-x="489" 
d="M91 25q-45 39 -45 113q0 67 38 103q25 24 63 34.5t95 10.5h118v40q0 69 -29 98q-28 29 -99 29q-67 0 -137 -16l-4 48q73 19 146 19q99 0 141 -43q40 -42 40 -127v-334h-47l-3 33q-37 -22 -78 -34.5t-80 -12.5q-74 0 -119 39zM293 47q39 10 67 26v166h-109q-46 0 -74 -7
t-45 -21q-28 -24 -28 -72q0 -52 30 -77t86 -25q34 0 73 10zM155 620.5q-31 34.5 -33 91.5h39q7 -35 26.5 -54.5t59.5 -19.5t59.5 19.5t26.5 54.5h39q-2 -57 -33 -91.5t-92 -34.5t-92 34.5z" />
    <glyph glyph-name="uni01CE" unicode="&#x1ce;" horiz-adv-x="489" 
d="M91 25q-45 39 -45 113q0 67 38 103q25 24 63 34.5t95 10.5h118v40q0 69 -29 98q-28 29 -99 29q-67 0 -137 -16l-4 48q73 19 146 19q99 0 141 -43q40 -42 40 -127v-334h-47l-3 33q-37 -22 -78 -34.5t-80 -12.5q-74 0 -119 39zM293 47q39 10 67 26v166h-109q-46 0 -74 -7
t-45 -21q-28 -24 -28 -72q0 -52 30 -77t86 -25q34 0 73 10zM101 734l22 20l124 -111l124 111l22 -20l-116 -142h-60z" />
    <glyph glyph-name="acircumflex" unicode="&#xe2;" horiz-adv-x="489" 
d="M91 25q-45 39 -45 113q0 67 38 103q25 24 63 34.5t95 10.5h118v40q0 69 -29 98q-28 29 -99 29q-67 0 -137 -16l-4 48q73 19 146 19q99 0 141 -43q40 -42 40 -127v-334h-47l-3 33q-37 -22 -78 -34.5t-80 -12.5q-74 0 -119 39zM293 47q39 10 67 26v166h-109q-46 0 -74 -7
t-45 -21q-28 -24 -28 -72q0 -52 30 -77t86 -25q34 0 73 10zM101 604l116 142h60l116 -142l-22 -20l-124 111l-124 -111z" />
    <glyph glyph-name="adieresis" unicode="&#xe4;" horiz-adv-x="489" 
d="M91 25q-45 39 -45 113q0 67 38 103q25 24 63 34.5t95 10.5h118v40q0 69 -29 98q-28 29 -99 29q-67 0 -137 -16l-4 48q73 19 146 19q99 0 141 -43q40 -42 40 -127v-334h-47l-3 33q-37 -22 -78 -34.5t-80 -12.5q-74 0 -119 39zM293 47q39 10 67 26v166h-109q-46 0 -74 -7
t-45 -21q-28 -24 -28 -72q0 -52 30 -77t86 -25q34 0 73 10zM113 654v9q0 41 39 41h8q39 0 39 -41v-9q0 -39 -39 -39h-8q-39 0 -39 39zM295 654v9q0 41 39 41h8q39 0 39 -41v-9q0 -39 -39 -39h-8q-39 0 -39 39z" />
    <glyph glyph-name="agrave" unicode="&#xe0;" horiz-adv-x="489" 
d="M91 25q-45 39 -45 113q0 67 38 103q25 24 63 34.5t95 10.5h118v40q0 69 -29 98q-28 29 -99 29q-67 0 -137 -16l-4 48q73 19 146 19q99 0 141 -43q40 -42 40 -127v-334h-47l-3 33q-37 -22 -78 -34.5t-80 -12.5q-74 0 -119 39zM293 47q39 10 67 26v166h-109q-46 0 -74 -7
t-45 -21q-28 -24 -28 -72q0 -52 30 -77t86 -25q34 0 73 10zM142 710l38 50l171 -157l-23 -29z" />
    <glyph glyph-name="amacron" unicode="&#x101;" horiz-adv-x="489" 
d="M91 25q-45 39 -45 113q0 67 38 103q25 24 63 34.5t95 10.5h118v40q0 69 -29 98q-28 29 -99 29q-67 0 -137 -16l-4 48q73 19 146 19q99 0 141 -43q40 -42 40 -127v-334h-47l-3 33q-37 -22 -78 -34.5t-80 -12.5q-74 0 -119 39zM293 47q39 10 67 26v166h-109q-46 0 -74 -7
t-45 -21q-28 -24 -28 -72q0 -52 30 -77t86 -25q34 0 73 10zM125 667h243v-49h-243v49z" />
    <glyph glyph-name="aogonek" unicode="&#x105;" horiz-adv-x="489" 
d="M305.5 -186q-26.5 25 -26.5 65q0 39 24.5 67.5t66.5 56.5l-2 30q-37 -22 -78 -34.5t-80 -12.5q-74 0 -119 39t-45 113q0 67 38 103q25 24 63 34.5t95 10.5h118v40q0 69 -29 98q-28 29 -99 29q-67 0 -137 -16l-4 48q73 19 146 19q99 0 141 -43q40 -42 40 -127v-334
q-44 -33 -66 -58t-22 -56q0 -26 16.5 -40t45.5 -14q21 0 29 1v-41q-18 -3 -42 -3q-47 0 -73.5 25zM293 47q39 10 67 26v166h-109q-46 0 -74 -7t-45 -21q-28 -24 -28 -72q0 -52 30 -77t86 -25q34 0 73 10z" />
    <glyph glyph-name="aring" unicode="&#xe5;" horiz-adv-x="489" 
d="M91 25q-45 39 -45 113q0 67 38 103q25 24 63 34.5t95 10.5h118v40q0 69 -29 98q-28 29 -99 29q-67 0 -137 -16l-4 48q73 19 146 19q99 0 141 -43q40 -42 40 -127v-334h-47l-3 33q-37 -22 -78 -34.5t-80 -12.5q-74 0 -119 39zM293 47q39 10 67 26v166h-109q-46 0 -74 -7
t-45 -21q-28 -24 -28 -72q0 -52 30 -77t86 -25q34 0 73 10zM166.5 608.5q-28.5 27.5 -28.5 76.5v4q0 49 28.5 76.5t78.5 27.5h4q50 0 78.5 -27.5t28.5 -76.5v-4q0 -49 -28.5 -76.5t-78.5 -27.5h-4q-50 0 -78.5 27.5zM248 626q59 0 59 59v4q0 59 -59 59h-3q-58 0 -58 -59v-4
q0 -59 58 -59h3z" />
    <glyph glyph-name="aringacute" unicode="&#x1fb;" horiz-adv-x="489" 
d="M91 25q-45 39 -45 113q0 67 38 103q25 24 63 34.5t95 10.5h118v40q0 69 -29 98q-28 29 -99 29q-67 0 -137 -16l-4 48q73 19 146 19q99 0 141 -43q40 -42 40 -127v-334h-47l-3 33q-37 -22 -78 -34.5t-80 -12.5q-74 0 -119 39zM293 47q39 10 67 26v166h-109q-46 0 -74 -7
t-45 -21q-28 -24 -28 -72q0 -52 30 -77t86 -25q34 0 73 10zM164.5 587.5q-28.5 27.5 -28.5 76.5v4q0 49 28.5 76.5t78.5 27.5h4q50 0 78.5 -27.5t28.5 -76.5v-4q0 -49 -28.5 -76.5t-78.5 -27.5h-4q-50 0 -78.5 27.5zM246 605q59 0 59 59v4q0 59 -59 59h-3q-58 0 -58 -59v-4
q0 -59 58 -59h3zM140 826l171 157l38 -50l-186 -136z" />
    <glyph glyph-name="atilde" unicode="&#xe3;" horiz-adv-x="489" 
d="M91 25q-45 39 -45 113q0 67 38 103q25 24 63 34.5t95 10.5h118v40q0 69 -29 98q-28 29 -99 29q-67 0 -137 -16l-4 48q73 19 146 19q99 0 141 -43q40 -42 40 -127v-334h-47l-3 33q-37 -22 -78 -34.5t-80 -12.5q-74 0 -119 39zM293 47q39 10 67 26v166h-109q-46 0 -74 -7
t-45 -21q-28 -24 -28 -72q0 -52 30 -77t86 -25q34 0 73 10zM277.5 616q-16.5 6 -37.5 16q-15 7 -30 12.5t-27 5.5q-15 0 -24.5 -9.5t-17.5 -29.5l-36 7q5 42 25 65t51 23q18 0 34 -5.5t39 -16.5q19 -9 31.5 -13.5t24.5 -4.5q15 0 24.5 9.5t17.5 29.5l36 -7q-5 -42 -25 -65
t-51 -23q-18 0 -34.5 6z" />
    <glyph glyph-name="ae" unicode="&#xe6;" horiz-adv-x="802" 
d="M411 54q-40 -31 -94.5 -49.5t-106.5 -18.5q-74 0 -119 39t-45 113q0 67 38 103q25 24 63 34.5t95 10.5h118v40q0 69 -29 98q-28 29 -99 29q-67 0 -137 -16l-4 48q73 19 146 19q99 0 141 -43q16 -18 24 -36q53 78 155 78q193 0 193 -262v-9q0 -6 -2.5 -8.5t-9.5 -2.5h-320
q2 -92 42.5 -139t133.5 -47q57 0 124 15l5 -47q-25 -8 -63 -13t-70 -5q-122 0 -179 69zM693 268q0 88 -33.5 137.5t-102.5 49.5q-64 0 -99 -42.5t-40 -119.5v-25h275zM306 51q43 14 81 42q-27 59 -27 146h-109q-46 0 -74 -7t-45 -21q-28 -24 -28 -72q0 -52 30 -77t86 -25
q43 0 86 14z" />
    <glyph glyph-name="aeacute" unicode="&#x1fd;" horiz-adv-x="802" 
d="M411 54q-40 -31 -94.5 -49.5t-106.5 -18.5q-74 0 -119 39t-45 113q0 67 38 103q25 24 63 34.5t95 10.5h118v40q0 69 -29 98q-28 29 -99 29q-67 0 -137 -16l-4 48q73 19 146 19q99 0 141 -43q16 -18 24 -36q53 78 155 78q193 0 193 -262v-9q0 -6 -2.5 -8.5t-9.5 -2.5h-320
q2 -92 42.5 -139t133.5 -47q57 0 124 15l5 -47q-25 -8 -63 -13t-70 -5q-122 0 -179 69zM693 268q0 88 -33.5 137.5t-102.5 49.5q-64 0 -99 -42.5t-40 -119.5v-25h275zM306 51q43 14 81 42q-27 59 -27 146h-109q-46 0 -74 -7t-45 -21q-28 -24 -28 -72q0 -52 30 -77t86 -25
q43 0 86 14zM329 603l171 157l38 -50l-186 -136z" />
    <glyph glyph-name="b" unicode="b" horiz-adv-x="515" 
d="M196 0q-42 14 -73 34l-3 -34h-46v715h58v-250q32 18 70.5 28.5t73.5 10.5q92 0 140.5 -64.5t48.5 -192.5q0 -146 -59 -211q-46 -50 -129 -50q-39 0 -81 14zM331.5 50q28.5 13 43.5 40q30 53 30 158q0 109 -38 161q-33 44 -102 44q-31 0 -67.5 -10t-65.5 -25v-341
q29 -18 66 -29t71 -11t62.5 13z" />
    <glyph glyph-name="c" unicode="c" horiz-adv-x="436" 
d="M109 48.5q-59 62.5 -59 191.5q0 131 58.5 197.5t170.5 66.5q64 0 114 -17l-4 -48q-57 15 -102 15q-97 0 -137 -50.5t-40 -161.5q0 -109 43 -157.5t145 -48.5q21 0 48 3t45 7l5 -48q-50 -12 -111 -12q-117 0 -176 62.5z" />
    <glyph glyph-name="cacute" unicode="&#x107;" horiz-adv-x="436" 
d="M109 48.5q-59 62.5 -59 191.5q0 131 58.5 197.5t170.5 66.5q64 0 114 -17l-4 -48q-57 15 -102 15q-97 0 -137 -50.5t-40 -161.5q0 -109 43 -157.5t145 -48.5q21 0 48 3t45 7l5 -48q-50 -12 -111 -12q-117 0 -176 62.5zM164 603l171 157l38 -50l-186 -136z" />
    <glyph glyph-name="ccaron" unicode="&#x10d;" horiz-adv-x="436" 
d="M109 48.5q-59 62.5 -59 191.5q0 131 58.5 197.5t170.5 66.5q64 0 114 -17l-4 -48q-57 15 -102 15q-97 0 -137 -50.5t-40 -161.5q0 -109 43 -157.5t145 -48.5q21 0 48 3t45 7l5 -48q-50 -12 -111 -12q-117 0 -176 62.5zM123 734l22 20l124 -111l124 111l22 -20l-116 -142
h-60z" />
    <glyph glyph-name="ccedilla" unicode="&#xe7;" horiz-adv-x="436" 
d="M211 -202v40q35 -7 63 -7q50 0 50 29q0 14 -12.5 21.5t-36.5 15.5q-29 9 -45 20t-16 33q0 20 13 41q-177 27 -177 249q0 131 58.5 197.5t170.5 66.5q64 0 114 -17l-4 -48q-57 15 -102 15q-97 0 -137 -50.5t-40 -161.5q0 -109 43 -157.5t145 -48.5q21 0 48 3t45 7l5 -48
q-50 -12 -111 -12q-16 0 -24 1q-3 -9 -3 -18q0 -13 10.5 -20t33.5 -15q33 -10 51 -24.5t18 -47.5q0 -34 -24 -53.5t-68 -19.5q-33 0 -68 9z" />
    <glyph glyph-name="ccircumflex" unicode="&#x109;" horiz-adv-x="436" 
d="M109 48.5q-59 62.5 -59 191.5q0 131 58.5 197.5t170.5 66.5q64 0 114 -17l-4 -48q-57 15 -102 15q-97 0 -137 -50.5t-40 -161.5q0 -109 43 -157.5t145 -48.5q21 0 48 3t45 7l5 -48q-50 -12 -111 -12q-117 0 -176 62.5zM123 604l116 142h60l116 -142l-22 -20l-124 111
l-124 -111z" />
    <glyph glyph-name="cdotaccent" unicode="&#x10b;" horiz-adv-x="436" 
d="M109 48.5q-59 62.5 -59 191.5q0 131 58.5 197.5t170.5 66.5q64 0 114 -17l-4 -48q-57 15 -102 15q-97 0 -137 -50.5t-40 -161.5q0 -109 43 -157.5t145 -48.5q21 0 48 3t45 7l5 -48q-50 -12 -111 -12q-117 0 -176 62.5zM223 651v10q0 43 42 43h8q42 0 42 -43v-10
q0 -43 -42 -43h-8q-42 0 -42 43z" />
    <glyph glyph-name="d" unicode="d" horiz-adv-x="518" 
d="M50 243q0 122 50 191.5t150 69.5q68 0 136 -34v245h58v-715h-46l-3 30q-29 -19 -69 -31.5t-76 -12.5q-200 0 -200 257zM320 46q36 9 66 24v352q-68 31 -125 31q-81 0 -116 -52t-35 -157q0 -106 34 -156.5t109 -50.5q31 0 67 9z" />
    <glyph glyph-name="eth" unicode="&#xf0;" horiz-adv-x="535" 
d="M109 48.5q-56 63.5 -56 175.5q0 115 53.5 178.5t150.5 63.5q36 0 73.5 -7.5t69.5 -21.5q-30 104 -106 198l-80 -59l-22 31l77 57q-39 42 -87 84l25 27q55 -40 99 -84l84 62l22 -31l-80 -59q75 -85 111.5 -182t36.5 -199q0 -146 -54.5 -221.5t-161.5 -75.5
q-99 0 -155 63.5zM385 98q36 63 36 182q0 50 -10 108q-73 30 -139 30q-81 0 -121 -49t-40 -140q0 -88 38 -141t115 -53q85 0 121 63z" />
    <glyph glyph-name="dcaron" unicode="&#x10f;" horiz-adv-x="600" 
d="M50 243q0 122 50 191.5t150 69.5q68 0 136 -34v245h58v-715h-46l-3 30q-29 -19 -69 -31.5t-76 -12.5q-200 0 -200 257zM536 618q-18 5 -25 14.5t-7 23.5v5q0 18 11 27t26 9h4q18 -1 26.5 -13t8.5 -39q0 -29 -4.5 -63t-13.5 -60h-26v96zM320 46q36 9 66 24v352
q-68 31 -125 31q-81 0 -116 -52t-35 -157q0 -106 34 -156.5t109 -50.5q31 0 67 9z" />
    <glyph glyph-name="dcroat" unicode="&#x111;" horiz-adv-x="518" 
d="M50 243q0 122 50 191.5t150 69.5q68 0 136 -34v116h-152v44h152v85h58v-87l77 -7v-35h-77v-586h-46l-3 30q-29 -19 -69 -31.5t-76 -12.5q-200 0 -200 257zM320 46q36 9 66 24v352q-68 31 -125 31q-81 0 -116 -52t-35 -157q0 -106 34 -156.5t109 -50.5q31 0 67 9z" />
    <glyph glyph-name="e" unicode="e" horiz-adv-x="495" 
d="M106 51.5q-56 66.5 -56 192.5q0 120 50.5 189.5t149.5 69.5q193 0 193 -262v-9q0 -6 -2.5 -8.5t-9.5 -2.5h-320q2 -92 42.5 -139t133.5 -47q57 0 124 15l5 -47q-25 -8 -63 -13t-70 -5q-121 0 -177 66.5zM386 268q0 88 -33.5 137.5t-102.5 49.5t-104 -49.5t-36 -137.5h276
z" />
    <glyph glyph-name="eacute" unicode="&#xe9;" horiz-adv-x="495" 
d="M106 51.5q-56 66.5 -56 192.5q0 120 50.5 189.5t149.5 69.5q193 0 193 -262v-9q0 -6 -2.5 -8.5t-9.5 -2.5h-320q2 -92 42.5 -139t133.5 -47q57 0 124 15l5 -47q-25 -8 -63 -13t-70 -5q-121 0 -177 66.5zM386 268q0 88 -33.5 137.5t-102.5 49.5t-104 -49.5t-36 -137.5h276
zM151 603l171 157l38 -50l-186 -136z" />
    <glyph glyph-name="ebreve" unicode="&#x115;" horiz-adv-x="495" 
d="M106 51.5q-56 66.5 -56 192.5q0 120 50.5 189.5t149.5 69.5q193 0 193 -262v-9q0 -6 -2.5 -8.5t-9.5 -2.5h-320q2 -92 42.5 -139t133.5 -47q57 0 124 15l5 -47q-25 -8 -63 -13t-70 -5q-121 0 -177 66.5zM386 268q0 88 -33.5 137.5t-102.5 49.5t-104 -49.5t-36 -137.5h276
zM164 620.5q-31 34.5 -33 91.5h39q7 -35 26.5 -54.5t59.5 -19.5t59.5 19.5t26.5 54.5h39q-2 -57 -33 -91.5t-92 -34.5t-92 34.5z" />
    <glyph glyph-name="ecaron" unicode="&#x11b;" horiz-adv-x="495" 
d="M106 51.5q-56 66.5 -56 192.5q0 120 50.5 189.5t149.5 69.5q193 0 193 -262v-9q0 -6 -2.5 -8.5t-9.5 -2.5h-320q2 -92 42.5 -139t133.5 -47q57 0 124 15l5 -47q-25 -8 -63 -13t-70 -5q-121 0 -177 66.5zM386 268q0 88 -33.5 137.5t-102.5 49.5t-104 -49.5t-36 -137.5h276
zM110 734l22 20l124 -111l124 111l22 -20l-116 -142h-60z" />
    <glyph glyph-name="ecircumflex" unicode="&#xea;" horiz-adv-x="495" 
d="M106 51.5q-56 66.5 -56 192.5q0 120 50.5 189.5t149.5 69.5q193 0 193 -262v-9q0 -6 -2.5 -8.5t-9.5 -2.5h-320q2 -92 42.5 -139t133.5 -47q57 0 124 15l5 -47q-25 -8 -63 -13t-70 -5q-121 0 -177 66.5zM386 268q0 88 -33.5 137.5t-102.5 49.5t-104 -49.5t-36 -137.5h276
zM110 604l116 142h60l116 -142l-22 -20l-124 111l-124 -111z" />
    <glyph glyph-name="edieresis" unicode="&#xeb;" horiz-adv-x="495" 
d="M106 51.5q-56 66.5 -56 192.5q0 120 50.5 189.5t149.5 69.5q193 0 193 -262v-9q0 -6 -2.5 -8.5t-9.5 -2.5h-320q2 -92 42.5 -139t133.5 -47q57 0 124 15l5 -47q-25 -8 -63 -13t-70 -5q-121 0 -177 66.5zM386 268q0 88 -33.5 137.5t-102.5 49.5t-104 -49.5t-36 -137.5h276
zM122 654v9q0 41 39 41h8q39 0 39 -41v-9q0 -39 -39 -39h-8q-39 0 -39 39zM304 654v9q0 41 39 41h8q39 0 39 -41v-9q0 -39 -39 -39h-8q-39 0 -39 39z" />
    <glyph glyph-name="edotaccent" unicode="&#x117;" horiz-adv-x="495" 
d="M106 51.5q-56 66.5 -56 192.5q0 120 50.5 189.5t149.5 69.5q193 0 193 -262v-9q0 -6 -2.5 -8.5t-9.5 -2.5h-320q2 -92 42.5 -139t133.5 -47q57 0 124 15l5 -47q-25 -8 -63 -13t-70 -5q-121 0 -177 66.5zM386 268q0 88 -33.5 137.5t-102.5 49.5t-104 -49.5t-36 -137.5h276
zM210 651v10q0 43 42 43h8q42 0 42 -43v-10q0 -43 -42 -43h-8q-42 0 -42 43z" />
    <glyph glyph-name="egrave" unicode="&#xe8;" horiz-adv-x="495" 
d="M106 51.5q-56 66.5 -56 192.5q0 120 50.5 189.5t149.5 69.5q193 0 193 -262v-9q0 -6 -2.5 -8.5t-9.5 -2.5h-320q2 -92 42.5 -139t133.5 -47q57 0 124 15l5 -47q-25 -8 -63 -13t-70 -5q-121 0 -177 66.5zM386 268q0 88 -33.5 137.5t-102.5 49.5t-104 -49.5t-36 -137.5h276
zM151 710l38 50l171 -157l-23 -29z" />
    <glyph glyph-name="emacron" unicode="&#x113;" horiz-adv-x="495" 
d="M106 51.5q-56 66.5 -56 192.5q0 120 50.5 189.5t149.5 69.5q193 0 193 -262v-9q0 -6 -2.5 -8.5t-9.5 -2.5h-320q2 -92 42.5 -139t133.5 -47q57 0 124 15l5 -47q-25 -8 -63 -13t-70 -5q-121 0 -177 66.5zM386 268q0 88 -33.5 137.5t-102.5 49.5t-104 -49.5t-36 -137.5h276
zM134 667h243v-49h-243v49z" />
    <glyph glyph-name="eogonek" unicode="&#x119;" horiz-adv-x="495" 
d="M275 -186.5q-25 24.5 -25 65.5q0 34 14 61.5t39 45.5q-7 -1 -20 -1q-121 0 -177 66.5t-56 192.5q0 120 50.5 189.5t149.5 69.5q193 0 193 -262v-9q0 -6 -2.5 -8.5t-9.5 -2.5h-320q2 -92 42.5 -139t133.5 -47q57 0 124 15l5 -47q-25 -6 -49.5 -18t-39.5 -29
q-26 -30 -26 -69q0 -27 15.5 -41t43.5 -14q18 0 63 6v-38q-46 -11 -76 -11q-47 0 -72 24.5zM386 268q0 88 -33.5 137.5t-102.5 49.5t-104 -49.5t-36 -137.5h276z" />
    <glyph glyph-name="f" unicode="f" horiz-adv-x="298" 
d="M108 444h-90v35l90 11v81q0 44 8 72t26 48q38 41 118 41q34 0 70 -6v-49q-38 4 -62 4q-56 0 -79 -24q-13 -13 -18 -34.5t-5 -59.5v-73h134v-46h-134v-444h-58v444z" />
    <glyph glyph-name="g" unicode="g" horiz-adv-x="499" 
d="M92 -203.5q-52 35.5 -52 101.5q0 32 15 63.5t42 53.5q-24 20 -24 56q0 26 14 56.5t38 52.5q-64 48 -64 145q0 85 49.5 132t137.5 47q34 0 59 -7l63 128q12 -3 26 -9.5t22 -13.5l-67 -121q41 -22 62.5 -61.5t21.5 -94.5q0 -85 -49.5 -132t-137.5 -47q-49 0 -86 14
q-17 -18 -25.5 -38.5t-8.5 -36.5q0 -15 7 -23q6 -6 17.5 -8.5t34.5 -2.5h98q58 0 94.5 -11t58.5 -34q33 -33 33 -90q0 -66 -40 -105q-53 -50 -182 -50q-105 0 -157 35.5zM379 325q0 129 -131 129t-131 -129t131 -129t131 129zM378 -164q37 24 37 73q0 48 -27.5 67.5
t-97.5 19.5h-106q-22 0 -46 2q-21 -19 -31.5 -42.5t-10.5 -47.5q0 -47 36.5 -71.5t120.5 -24.5q88 0 125 24z" />
    <glyph glyph-name="gbreve" unicode="&#x11f;" horiz-adv-x="499" 
d="M158 620.5q-31 34.5 -33 91.5h39q7 -35 26.5 -54.5t59.5 -19.5t59.5 19.5t26.5 54.5h39q-2 -57 -33 -91.5t-92 -34.5t-92 34.5zM92 -203.5q-52 35.5 -52 101.5q0 32 15 63.5t42 53.5q-24 20 -24 56q0 26 14 56.5t38 52.5q-64 48 -64 145q0 85 49.5 132t137.5 47
q51 0 91 -17l64 78q22 -12 38 -34l-63 -68q57 -48 57 -138q0 -85 -49.5 -132t-137.5 -47q-49 0 -86 14q-17 -18 -25.5 -38.5t-8.5 -36.5q0 -15 7 -23q6 -6 17.5 -8.5t34.5 -2.5h98q58 0 94.5 -11t58.5 -34q33 -33 33 -90q0 -66 -40 -105q-53 -50 -182 -50q-105 0 -157 35.5z
M379 325q0 129 -131 129t-131 -129t131 -129t131 129zM378 -164q37 24 37 73q0 48 -27.5 67.5t-97.5 19.5h-106q-22 0 -46 2q-21 -19 -31.5 -42.5t-10.5 -47.5q0 -47 36.5 -71.5t120.5 -24.5q88 0 125 24z" />
    <glyph glyph-name="gcircumflex" unicode="&#x11d;" horiz-adv-x="499" 
d="M104 604l116 142h60l116 -142l-22 -20l-124 111l-124 -111zM92 -203.5q-52 35.5 -52 101.5q0 32 15 63.5t42 53.5q-24 20 -24 56q0 26 14 56.5t38 52.5q-64 48 -64 145q0 85 49.5 132t137.5 47q51 0 91 -17l64 78q22 -12 38 -34l-63 -68q57 -48 57 -138q0 -85 -49.5 -132
t-137.5 -47q-49 0 -86 14q-17 -18 -25.5 -38.5t-8.5 -36.5q0 -15 7 -23q6 -6 17.5 -8.5t34.5 -2.5h98q58 0 94.5 -11t58.5 -34q33 -33 33 -90q0 -66 -40 -105q-53 -50 -182 -50q-105 0 -157 35.5zM379 325q0 129 -131 129t-131 -129t131 -129t131 129zM378 -164q37 24 37 73
q0 48 -27.5 67.5t-97.5 19.5h-106q-22 0 -46 2q-21 -19 -31.5 -42.5t-10.5 -47.5q0 -47 36.5 -71.5t120.5 -24.5q88 0 125 24z" />
    <glyph glyph-name="gcommaaccent" unicode="&#x123;" horiz-adv-x="499" 
d="M219.5 581q-8.5 12 -8.5 39q0 29 4.5 63t13.5 60h26v-96q18 -5 25 -14.5t7 -23.5v-5q0 -18 -11 -27t-26 -9h-4q-18 1 -26.5 13zM92 -203.5q-52 35.5 -52 101.5q0 32 15 63.5t42 53.5q-24 20 -24 56q0 26 14 56.5t38 52.5q-64 48 -64 145q0 85 49.5 132t137.5 47
q51 0 91 -17l64 78q22 -12 38 -34l-63 -68q57 -48 57 -138q0 -85 -49.5 -132t-137.5 -47q-49 0 -86 14q-17 -18 -25.5 -38.5t-8.5 -36.5q0 -15 7 -23q6 -6 17.5 -8.5t34.5 -2.5h98q58 0 94.5 -11t58.5 -34q33 -33 33 -90q0 -66 -40 -105q-53 -50 -182 -50q-105 0 -157 35.5z
M379 325q0 129 -131 129t-131 -129t131 -129t131 129zM378 -164q37 24 37 73q0 48 -27.5 67.5t-97.5 19.5h-106q-22 0 -46 2q-21 -19 -31.5 -42.5t-10.5 -47.5q0 -47 36.5 -71.5t120.5 -24.5q88 0 125 24z" />
    <glyph glyph-name="gdotaccent" unicode="&#x121;" horiz-adv-x="499" 
d="M204 651v10q0 43 42 43h8q42 0 42 -43v-10q0 -43 -42 -43h-8q-42 0 -42 43zM92 -203.5q-52 35.5 -52 101.5q0 32 15 63.5t42 53.5q-24 20 -24 56q0 26 14 56.5t38 52.5q-64 48 -64 145q0 85 49.5 132t137.5 47q51 0 91 -17l64 78q22 -12 38 -34l-63 -68q57 -48 57 -138
q0 -85 -49.5 -132t-137.5 -47q-49 0 -86 14q-17 -18 -25.5 -38.5t-8.5 -36.5q0 -15 7 -23q6 -6 17.5 -8.5t34.5 -2.5h98q58 0 94.5 -11t58.5 -34q33 -33 33 -90q0 -66 -40 -105q-53 -50 -182 -50q-105 0 -157 35.5zM379 325q0 129 -131 129t-131 -129t131 -129t131 129z
M378 -164q37 24 37 73q0 48 -27.5 67.5t-97.5 19.5h-106q-22 0 -46 2q-21 -19 -31.5 -42.5t-10.5 -47.5q0 -47 36.5 -71.5t120.5 -24.5q88 0 125 24z" />
    <glyph glyph-name="h" unicode="h" horiz-adv-x="531" 
d="M74 715h58v-258q83 47 164 47q39 0 71 -10.5t52 -30.5q21 -21 31 -50.5t10 -73.5v-339h-58v324q0 38 -6.5 60.5t-21.5 37.5q-29 29 -87 29q-36 0 -77 -10t-78 -29v-412h-58v715z" />
    <glyph glyph-name="hbar" unicode="&#x127;" horiz-adv-x="531" 
d="M74 586h-77v35l77 7v87h58v-85h152v-44h-152v-129q83 47 164 47q39 0 71 -10.5t52 -30.5q21 -21 31 -50.5t10 -73.5v-339h-58v324q0 38 -6.5 60.5t-21.5 37.5q-29 29 -87 29q-36 0 -77 -10t-78 -29v-412h-58v586z" />
    <glyph glyph-name="hcircumflex" unicode="&#x125;" horiz-adv-x="531" 
d="M74 715h58v-258q83 47 164 47q39 0 71 -10.5t52 -30.5q21 -21 31 -50.5t10 -73.5v-339h-58v324q0 38 -6.5 60.5t-21.5 37.5q-29 29 -87 29q-36 0 -77 -10t-78 -29v-412h-58v715zM-44 734l116 142h60l116 -142l-22 -20l-124 111l-124 -111z" />
    <glyph glyph-name="i" unicode="i" horiz-adv-x="210" 
d="M67 628v3q0 39 36 39h4q36 0 36 -39v-3q0 -39 -36 -39h-4q-36 0 -36 39zM76 490h58v-490h-58v490z" />
    <glyph glyph-name="dotlessi" unicode="&#x131;" horiz-adv-x="210" 
d="M76 490h58v-490h-58v490z" />
    <glyph glyph-name="iacute" unicode="&#xed;" horiz-adv-x="210" 
d="M76 490h58v-490h-58v490zM0 603l171 157l38 -50l-186 -136z" />
    <glyph glyph-name="ibreve" unicode="&#x12d;" horiz-adv-x="210" 
d="M76 490h58v-490h-58v490zM13 620.5q-31 34.5 -33 91.5h39q7 -35 26.5 -54.5t59.5 -19.5t59.5 19.5t26.5 54.5h39q-2 -57 -33 -91.5t-92 -34.5t-92 34.5z" />
    <glyph glyph-name="icircumflex" unicode="&#xee;" horiz-adv-x="210" 
d="M76 490h58v-490h-58v490zM-41 604l116 142h60l116 -142l-22 -20l-124 111l-124 -111z" />
    <glyph glyph-name="idieresis" unicode="&#xef;" horiz-adv-x="210" 
d="M76 490h58v-490h-58v490zM-29 654v9q0 41 39 41h8q39 0 39 -41v-9q0 -39 -39 -39h-8q-39 0 -39 39zM153 654v9q0 41 39 41h8q39 0 39 -41v-9q0 -39 -39 -39h-8q-39 0 -39 39z" />
    <glyph glyph-name="i.loclTRK" horiz-adv-x="210" 
d="M76 490h58v-490h-58v490zM59 651v10q0 43 42 43h8q42 0 42 -43v-10q0 -43 -42 -43h-8q-42 0 -42 43z" />
    <glyph glyph-name="igrave" unicode="&#xec;" horiz-adv-x="210" 
d="M76 490h58v-490h-58v490zM0 710l38 50l171 -157l-23 -29z" />
    <glyph glyph-name="ij" unicode="&#x133;" horiz-adv-x="420" 
d="M67 628v3q0 39 36 39h4q36 0 36 -39v-3q0 -39 -36 -39h-4q-36 0 -36 39zM76 490h58v-490h-58v490zM277 628v3q0 39 36 39h4q36 0 36 -39v-3q0 -39 -36 -39h-4q-36 0 -36 39zM148 -187q79 0 110 33q16 17 22 42t6 75v527h58v-527q0 -56 -9.5 -92.5t-34.5 -62.5
q-22 -23 -57.5 -34t-87.5 -11z" />
    <glyph glyph-name="imacron" unicode="&#x12b;" horiz-adv-x="210" 
d="M76 490h58v-490h-58v490zM-17 667h243v-49h-243v49z" />
    <glyph glyph-name="iogonek" unicode="&#x12f;" horiz-adv-x="210" 
d="M67 628v3q0 39 36 39h4q36 0 36 -39v-3q0 -39 -36 -39h-4q-36 0 -36 39zM21.5 -186q-26.5 25 -26.5 65q0 37 22 65t59 53v493h58v-490q-44 -33 -66 -58t-22 -56q0 -26 16.5 -40t45.5 -14q21 0 29 1v-41q-18 -3 -42 -3q-47 0 -73.5 25z" />
    <glyph glyph-name="itilde" unicode="&#x129;" horiz-adv-x="210" 
d="M76 490h58v-490h-58v490zM135.5 616q-16.5 6 -37.5 16q-15 7 -30 12.5t-27 5.5q-15 0 -24.5 -9.5t-17.5 -29.5l-36 7q5 42 25 65t51 23q18 0 34 -5.5t39 -16.5q19 -9 31.5 -13.5t24.5 -4.5q15 0 24.5 9.5t17.5 29.5l36 -7q-5 -42 -25 -65t-51 -23q-18 0 -34.5 6z" />
    <glyph glyph-name="j" unicode="j" horiz-adv-x="210" 
d="M67 628v3q0 39 36 39h4q36 0 36 -39v-3q0 -39 -36 -39h-4q-36 0 -36 39zM-62 -187q79 0 110 33q16 17 22 42t6 75v527h58v-527q0 -56 -9.5 -92.5t-34.5 -62.5q-22 -23 -57.5 -34t-87.5 -11z" />
    <glyph glyph-name="uni0237" unicode="&#x237;" horiz-adv-x="210" 
d="M-62 -187q79 0 110 33q16 17 22 42t6 75v527h58v-527q0 -56 -9.5 -92.5t-34.5 -62.5q-22 -23 -57.5 -34t-87.5 -11z" />
    <glyph glyph-name="jcircumflex" unicode="&#x135;" horiz-adv-x="210" 
d="M-62 -187q79 0 110 33q16 17 22 42t6 75v527h58v-527q0 -56 -9.5 -92.5t-34.5 -62.5q-22 -23 -57.5 -34t-87.5 -11zM-41 604l116 142h60l116 -142l-22 -20l-124 111l-124 -111z" />
    <glyph glyph-name="k" unicode="k" horiz-adv-x="482" 
d="M74 715h58v-492l245 267h67l-172 -185l190 -305h-66l-163 264l-101 -110v-154h-58v715z" />
    <glyph glyph-name="kcommaaccent" unicode="&#x137;" horiz-adv-x="482" 
d="M74 715h58v-492l245 267h67l-172 -185l190 -305h-66l-163 264l-101 -110v-154h-58v715zM259 -152q-18 5 -25 14.5t-7 23.5v5q0 18 11 27t26 9h4q18 -1 26.5 -13t8.5 -39q0 -29 -4.5 -63t-13.5 -60h-26v96z" />
    <glyph glyph-name="kgreenlandic" unicode="&#x138;" horiz-adv-x="482" 
d="M74 490h58v-267l245 267h67l-172 -185l190 -305h-66l-163 264l-101 -110v-154h-58v490z" />
    <glyph glyph-name="l" unicode="l" horiz-adv-x="210" 
d="M76 715h58v-715h-58v715z" />
    <glyph glyph-name="lacute" unicode="&#x13a;" horiz-adv-x="210" 
d="M76 715h58v-715h-58v715zM8 762l171 157l38 -50l-186 -136z" />
    <glyph glyph-name="lcaron" unicode="&#x13e;" horiz-adv-x="290" 
d="M76 715h58v-715h-58v715zM226 618q-18 5 -25 14.5t-7 23.5v5q0 18 11 27t26 9h4q18 -1 26.5 -13t8.5 -39q0 -29 -4.5 -63t-13.5 -60h-26v96z" />
    <glyph glyph-name="lcommaaccent" unicode="&#x13c;" horiz-adv-x="210" 
d="M76 715h58v-715h-58v715zM99 -152q-18 5 -25 14.5t-7 23.5v5q0 18 11 27t26 9h4q18 -1 26.5 -13t8.5 -39q0 -29 -4.5 -63t-13.5 -60h-26v96z" />
    <glyph glyph-name="ldot" unicode="&#x140;" horiz-adv-x="336" 
d="M76 715h58v-715h-58v715zM220 329v10q0 43 42 43h8q42 0 42 -43v-10q0 -43 -42 -43h-8q-42 0 -42 43z" />
    <glyph glyph-name="lslash" unicode="&#x142;" horiz-adv-x="306" 
d="M121 318l-76 -50l-25 42l101 66v339h58v-301l102 67l25 -42l-127 -83v-356h-58v318z" />
    <glyph glyph-name="m" unicode="m" horiz-adv-x="832" 
d="M74 490h46l4 -36q36 23 78.5 36.5t82.5 13.5q43 0 78.5 -13.5t54.5 -39.5q42 25 89 39t91 14q38 0 70.5 -10.5t52.5 -30.5q21 -21 30.5 -50t9.5 -74v-339h-58v324q0 39 -6 61t-21 37q-29 29 -88 29q-74 0 -150 -37q10 -29 10 -75v-339h-58v324q0 39 -6 61t-21 37
q-29 29 -86 29q-32 0 -70 -10t-75 -28v-413h-58v490z" />
    <glyph glyph-name="n" unicode="n" horiz-adv-x="531" 
d="M74 490h46l4 -37q84 51 172 51q39 0 71 -10.5t52 -30.5q21 -21 31 -50.5t10 -73.5v-339h-58v324q0 38 -6.5 60.5t-21.5 37.5q-29 29 -87 29q-36 0 -77 -10t-78 -29v-412h-58v490z" />
    <glyph glyph-name="nacute" unicode="&#x144;" horiz-adv-x="531" 
d="M74 490h46l4 -37q84 51 172 51q39 0 71 -10.5t52 -30.5q21 -21 31 -50.5t10 -73.5v-339h-58v324q0 38 -6.5 60.5t-21.5 37.5q-29 29 -87 29q-36 0 -77 -10t-78 -29v-412h-58v490zM181 603l171 157l38 -50l-186 -136z" />
    <glyph glyph-name="napostrophe" unicode="&#x149;" horiz-adv-x="592" 
d="M46 610q-20 5 -28 14.5t-8 26.5v5q0 21 11 31t28 10h4q21 -1 30.5 -13.5t9.5 -43.5t-5.5 -72t-14.5 -73h-27v115zM135 490h46l4 -37q84 51 172 51q39 0 71 -10.5t52 -30.5q21 -21 31 -50.5t10 -73.5v-339h-58v324q0 38 -6.5 60.5t-21.5 37.5q-29 29 -87 29q-36 0 -77 -10
t-78 -29v-412h-58v490z" />
    <glyph glyph-name="ncaron" unicode="&#x148;" horiz-adv-x="531" 
d="M74 490h46l4 -37q84 51 172 51q39 0 71 -10.5t52 -30.5q21 -21 31 -50.5t10 -73.5v-339h-58v324q0 38 -6.5 60.5t-21.5 37.5q-29 29 -87 29q-36 0 -77 -10t-78 -29v-412h-58v490zM140 734l22 20l124 -111l124 111l22 -20l-116 -142h-60z" />
    <glyph glyph-name="ncommaaccent" unicode="&#x146;" horiz-adv-x="531" 
d="M74 490h46l4 -37q84 51 172 51q39 0 71 -10.5t52 -30.5q21 -21 31 -50.5t10 -73.5v-339h-58v324q0 38 -6.5 60.5t-21.5 37.5q-29 29 -87 29q-36 0 -77 -10t-78 -29v-412h-58v490zM260 -152q-18 5 -25 14.5t-7 23.5v5q0 18 11 27t26 9h4q18 -1 26.5 -13t8.5 -39
q0 -29 -4.5 -63t-13.5 -60h-26v96z" />
    <glyph glyph-name="eng" unicode="&#x14b;" horiz-adv-x="531" 
d="M264 -187q79 0 110 33q16 17 22 42t6 75v361q0 38 -6.5 60.5t-21.5 37.5q-29 29 -87 29q-36 0 -77 -10t-78 -29v-412h-58v490h46l4 -37q84 51 172 51q39 0 71 -10.5t52 -30.5q21 -21 31 -50.5t10 -73.5v-376q0 -56 -9.5 -92.5t-34.5 -62.5q-22 -23 -57.5 -34t-87.5 -11z
" />
    <glyph glyph-name="ntilde" unicode="&#xf1;" horiz-adv-x="531" 
d="M317 616q-17 6 -38 16q-15 7 -30 12.5t-27 5.5q-15 0 -24.5 -9.5t-17.5 -29.5l-36 7q5 42 25 65t51 23q18 0 34 -5.5t39 -16.5q19 -9 31.5 -13.5t24.5 -4.5q15 0 24.5 9.5t17.5 29.5l36 -7q-5 -42 -25 -65t-51 -23q-17 0 -34 6zM74 490h46l4 -37q84 51 172 51
q39 0 71 -10.5t52 -30.5q21 -21 31 -50.5t10 -73.5v-339h-58v324q0 38 -6.5 60.5t-21.5 37.5q-29 29 -87 29q-36 0 -77 -10t-78 -29v-412h-58v490z" />
    <glyph glyph-name="o" unicode="o" horiz-adv-x="522" 
d="M50 245q0 259 211 259t211 -259t-211 -259t-211 259zM377 88q35 52 35 157t-35 157t-116 52t-116 -52t-35 -157t35 -157t116 -52t116 52z" />
    <glyph glyph-name="oacute" unicode="&#xf3;" horiz-adv-x="522" 
d="M156 603l171 157l38 -50l-186 -136zM50 245q0 259 211 259t211 -259t-211 -259t-211 259zM377 88q35 52 35 157t-35 157t-116 52t-116 -52t-35 -157t35 -157t116 -52t116 52z" />
    <glyph glyph-name="obreve" unicode="&#x14f;" horiz-adv-x="522" 
d="M50 245q0 259 211 259t211 -259t-211 -259t-211 259zM377 88q35 52 35 157t-35 157t-116 52t-116 -52t-35 -157t35 -157t116 -52t116 52zM169 620.5q-31 34.5 -33 91.5h39q7 -35 26.5 -54.5t59.5 -19.5t59.5 19.5t26.5 54.5h39q-2 -57 -33 -91.5t-92 -34.5t-92 34.5z" />
    <glyph glyph-name="ocircumflex" unicode="&#xf4;" horiz-adv-x="522" 
d="M50 245q0 259 211 259t211 -259t-211 -259t-211 259zM377 88q35 52 35 157t-35 157t-116 52t-116 -52t-35 -157t35 -157t116 -52t116 52zM115 604l116 142h60l116 -142l-22 -20l-124 111l-124 -111z" />
    <glyph glyph-name="odieresis" unicode="&#xf6;" horiz-adv-x="522" 
d="M50 245q0 259 211 259t211 -259t-211 -259t-211 259zM377 88q35 52 35 157t-35 157t-116 52t-116 -52t-35 -157t35 -157t116 -52t116 52zM127 654v9q0 41 39 41h8q39 0 39 -41v-9q0 -39 -39 -39h-8q-39 0 -39 39zM309 654v9q0 41 39 41h8q39 0 39 -41v-9q0 -39 -39 -39
h-8q-39 0 -39 39z" />
    <glyph glyph-name="ograve" unicode="&#xf2;" horiz-adv-x="522" 
d="M50 245q0 259 211 259t211 -259t-211 -259t-211 259zM377 88q35 52 35 157t-35 157t-116 52t-116 -52t-35 -157t35 -157t116 -52t116 52zM156 710l38 50l171 -157l-23 -29z" />
    <glyph glyph-name="ohungarumlaut" unicode="&#x151;" horiz-adv-x="522" 
d="M50 245q0 259 211 259t211 -259t-211 -259t-211 259zM377 88q35 52 35 157t-35 157t-116 52t-116 -52t-35 -157t35 -157t116 -52t116 52zM98 606l141 185l46 -43l-159 -166zM278 606l141 185l46 -43l-159 -166z" />
    <glyph glyph-name="omacron" unicode="&#x14d;" horiz-adv-x="522" 
d="M50 245q0 259 211 259t211 -259t-211 -259t-211 259zM377 88q35 52 35 157t-35 157t-116 52t-116 -52t-35 -157t35 -157t116 -52t116 52zM139 667h243v-49h-243v49z" />
    <glyph glyph-name="oslash" unicode="&#xf8;" horiz-adv-x="522" 
d="M146 14q-96 57 -96 231q0 126 53 192.5t161 66.5q39 0 70 -9l31 79h50l-38 -97q95 -56 95 -232q0 -259 -211 -259q-40 0 -72 9l-31 -79h-50zM315 447q-22 7 -54 7q-81 0 -116 -52t-35 -157q0 -66 13.5 -111t42.5 -69zM377 88q35 52 35 157q0 133 -56 179l-149 -381
q22 -7 54 -7q81 0 116 52z" />
    <glyph glyph-name="oslashacute" unicode="&#x1ff;" horiz-adv-x="522" 
d="M146 14q-96 57 -96 231q0 126 53 192.5t161 66.5q39 0 70 -9l31 79h50l-38 -97q95 -56 95 -232q0 -259 -211 -259q-40 0 -72 9l-31 -79h-50zM315 447q-22 7 -54 7q-81 0 -116 -52t-35 -157q0 -66 13.5 -111t42.5 -69zM377 88q35 52 35 157q0 133 -56 179l-149 -381
q22 -7 54 -7q81 0 116 52zM156 603l171 157l38 -50l-186 -136z" />
    <glyph glyph-name="otilde" unicode="&#xf5;" horiz-adv-x="522" 
d="M50 245q0 259 211 259t211 -259t-211 -259t-211 259zM377 88q35 52 35 157t-35 157t-116 52t-116 -52t-35 -157t35 -157t116 -52t116 52zM291.5 616q-16.5 6 -37.5 16q-15 7 -30 12.5t-27 5.5q-15 0 -24.5 -9.5t-17.5 -29.5l-36 7q5 42 25 65t51 23q18 0 34 -5.5
t39 -16.5q19 -9 31.5 -13.5t24.5 -4.5q15 0 24.5 9.5t17.5 29.5l36 -7q-5 -42 -25 -65t-51 -23q-18 0 -34.5 6z" />
    <glyph glyph-name="oe" unicode="&#x153;" horiz-adv-x="858" 
d="M443 89q-49 -103 -182 -103q-211 0 -211 259t211 259q133 0 182 -103q24 49 66.5 75.5t102.5 26.5q193 0 193 -262q0 -20 -19 -20h-313q2 -92 42.5 -139t133.5 -47q57 0 124 15l5 -47q-25 -8 -63 -13t-70 -5q-149 0 -202 104zM748 268q0 88 -33.5 137.5t-102.5 49.5
q-70 0 -104.5 -49.5t-35.5 -137.5h276zM377 87.5q35 51.5 35 156.5v1q0 105 -35 157t-116 52t-116 -52t-35 -157t35 -157t116 -52t116 51.5z" />
    <glyph glyph-name="p" unicode="p" horiz-adv-x="515" 
d="M74 490h46l5 -37q31 22 72.5 36.5t79.5 14.5q92 0 140 -64t48 -193q0 -145 -60 -211q-46 -50 -131 -50q-37 0 -76 11.5t-66 29.5v-252h-58v715zM331.5 50q27.5 13 43.5 40q30 51 30 158q0 112 -36 161q-33 44 -101 44q-30 0 -67 -11.5t-69 -29.5v-335q25 -18 61.5 -29
t70.5 -11q40 0 67.5 13z" />
    <glyph glyph-name="thorn" unicode="&#xfe;" horiz-adv-x="515" 
d="M74 715h58v-258q32 20 71 33.5t74 13.5q92 0 140 -64t48 -193q0 -145 -60 -211q-46 -50 -131 -50q-37 0 -76 11.5t-66 29.5v-252h-58v940zM331.5 50q27.5 13 43.5 40q30 51 30 158q0 112 -36 161q-33 44 -101 44q-30 0 -67 -11.5t-69 -29.5v-335q25 -18 61.5 -29
t70.5 -11q40 0 67.5 13z" />
    <glyph glyph-name="q" unicode="q" horiz-adv-x="518" 
d="M386 25q-29 -17 -65.5 -28t-69.5 -11q-201 0 -201 257q0 122 51 191.5t151 69.5q72 0 140 -44l3 30h49v-709l-58 -11v255zM320 46q36 9 66 24v344q-28 18 -61 28.5t-65 10.5q-79 0 -114.5 -52.5t-35.5 -156.5q0 -106 34 -156.5t109 -50.5q31 0 67 9z" />
    <glyph glyph-name="r" unicode="r" horiz-adv-x="314" 
d="M74 490h46l5 -42q33 27 71.5 41.5t73.5 14.5q14 0 24 -1v-54q-16 1 -34 1q-69 0 -128 -41v-409h-58v490z" />
    <glyph glyph-name="racute" unicode="&#x155;" horiz-adv-x="314" 
d="M74 490h46l5 -42q33 27 71.5 41.5t73.5 14.5q14 0 24 -1v-54q-16 1 -34 1q-69 0 -128 -41v-409h-58v490zM109 603l171 157l38 -50l-186 -136z" />
    <glyph glyph-name="rcaron" unicode="&#x159;" horiz-adv-x="314" 
d="M74 490h46l5 -42q33 27 71.5 41.5t73.5 14.5q14 0 24 -1v-54q-16 1 -34 1q-69 0 -128 -41v-409h-58v490zM68 734l22 20l124 -111l124 111l22 -20l-116 -142h-60z" />
    <glyph glyph-name="rcommaaccent" unicode="&#x157;" horiz-adv-x="314" 
d="M74 490h46l5 -42q33 27 71.5 41.5t73.5 14.5q14 0 24 -1v-54q-16 1 -34 1q-69 0 -128 -41v-409h-58v490zM97 -152q-18 5 -25 14.5t-7 23.5v5q0 18 11 27t26 9h4q18 -1 26.5 -13t8.5 -39q0 -29 -4.5 -63t-13.5 -60h-26v96z" />
    <glyph glyph-name="s" unicode="s" horiz-adv-x="416" 
d="M117.5 -9q-35.5 5 -61.5 13l5 46q61 -16 125 -16q66 0 100.5 23t34.5 67q0 30 -16.5 49t-40.5 29.5t-67 23.5q-50 16 -79.5 29.5t-50.5 40.5t-21 71q0 68 46.5 102.5t130.5 34.5q29 0 62.5 -4.5t58.5 -12.5l-3 -45q-65 14 -117 14q-61 0 -92 -21t-31 -65q0 -28 16 -45.5
t39.5 -28t65.5 -23.5q50 -16 80.5 -31t52 -42.5t21.5 -72.5q0 -68 -48 -104.5t-139 -36.5q-36 0 -71.5 5z" />
    <glyph glyph-name="sacute" unicode="&#x15b;" horiz-adv-x="416" 
d="M117.5 -9q-35.5 5 -61.5 13l5 46q61 -16 125 -16q66 0 100.5 23t34.5 67q0 30 -16.5 49t-40.5 29.5t-67 23.5q-50 16 -79.5 29.5t-50.5 40.5t-21 71q0 68 46.5 102.5t130.5 34.5q29 0 62.5 -4.5t58.5 -12.5l-3 -45q-65 14 -117 14q-61 0 -92 -21t-31 -65q0 -28 16 -45.5
t39.5 -28t65.5 -23.5q50 -16 80.5 -31t52 -42.5t21.5 -72.5q0 -68 -48 -104.5t-139 -36.5q-36 0 -71.5 5zM109 603l171 157l38 -50l-186 -136z" />
    <glyph glyph-name="scaron" unicode="&#x161;" horiz-adv-x="416" 
d="M117.5 -9q-35.5 5 -61.5 13l5 46q61 -16 125 -16q66 0 100.5 23t34.5 67q0 30 -16.5 49t-40.5 29.5t-67 23.5q-50 16 -79.5 29.5t-50.5 40.5t-21 71q0 68 46.5 102.5t130.5 34.5q29 0 62.5 -4.5t58.5 -12.5l-3 -45q-65 14 -117 14q-61 0 -92 -21t-31 -65q0 -28 16 -45.5
t39.5 -28t65.5 -23.5q50 -16 80.5 -31t52 -42.5t21.5 -72.5q0 -68 -48 -104.5t-139 -36.5q-36 0 -71.5 5zM68 734l22 20l124 -111l124 111l22 -20l-116 -142h-60z" />
    <glyph glyph-name="scedilla" unicode="&#x15f;" horiz-adv-x="416" 
d="M159 -202v40q35 -7 63 -7q50 0 50 29q0 14 -12.5 21.5t-36.5 15.5q-29 9 -45 20t-16 33q0 19 11 36q-73 3 -117 18l5 46q61 -16 125 -16q66 0 100.5 23t34.5 67q0 30 -16.5 49t-40.5 29.5t-67 23.5q-50 16 -79.5 29.5t-50.5 40.5t-21 71q0 68 46.5 102.5t130.5 34.5
q29 0 62.5 -4.5t58.5 -12.5l-3 -45q-65 14 -117 14q-61 0 -92 -21t-31 -65q0 -28 16 -45.5t39.5 -28t65.5 -23.5q50 -16 80.5 -31t52 -42.5t21.5 -72.5q0 -64 -43 -100t-124 -40q-3 -9 -3 -18q0 -13 10.5 -20t33.5 -15q33 -10 51 -24.5t18 -47.5q0 -34 -24 -53.5t-68 -19.5
q-33 0 -68 9z" />
    <glyph glyph-name="scircumflex" unicode="&#x15d;" horiz-adv-x="416" 
d="M117.5 -9q-35.5 5 -61.5 13l5 46q61 -16 125 -16q66 0 100.5 23t34.5 67q0 30 -16.5 49t-40.5 29.5t-67 23.5q-50 16 -79.5 29.5t-50.5 40.5t-21 71q0 68 46.5 102.5t130.5 34.5q29 0 62.5 -4.5t58.5 -12.5l-3 -45q-65 14 -117 14q-61 0 -92 -21t-31 -65q0 -28 16 -45.5
t39.5 -28t65.5 -23.5q50 -16 80.5 -31t52 -42.5t21.5 -72.5q0 -68 -48 -104.5t-139 -36.5q-36 0 -71.5 5zM68 604l116 142h60l116 -142l-22 -20l-124 111l-124 -111z" />
    <glyph glyph-name="scommaaccent" unicode="&#x219;" horiz-adv-x="416" 
d="M117.5 -9q-35.5 5 -61.5 13l5 46q61 -16 125 -16q66 0 100.5 23t34.5 67q0 30 -16.5 49t-40.5 29.5t-67 23.5q-50 16 -79.5 29.5t-50.5 40.5t-21 71q0 68 46.5 102.5t130.5 34.5q29 0 62.5 -4.5t58.5 -12.5l-3 -45q-65 14 -117 14q-61 0 -92 -21t-31 -65q0 -28 16 -45.5
t39.5 -28t65.5 -23.5q50 -16 80.5 -31t52 -42.5t21.5 -72.5q0 -68 -48 -104.5t-139 -36.5q-36 0 -71.5 5zM202 -152q-18 5 -25 14.5t-7 23.5v5q0 18 11 27t26 9h4q18 -1 26.5 -13t8.5 -39q0 -29 -4.5 -63t-13.5 -60h-26v96z" />
    <glyph glyph-name="germandbls" unicode="&#xdf;" horiz-adv-x="613" 
d="M253 3l3 47q29 -7 64 -11.5t63 -4.5q73 0 106 27q28 23 28 65q0 28 -15 47t-37.5 32t-60.5 29q-40 17 -65 31.5t-42.5 38t-17.5 57.5q0 36 20 60.5t58 54.5t57 53.5t19 56.5q0 44 -31 70t-88 26q-70 0 -110 -43q-21 -22 -29.5 -55.5t-8.5 -85.5v-498h-58v444h-90v35
l90 11v5q0 61 13 104.5t41 73.5q27 28 66.5 43.5t84.5 15.5q82 0 129 -39.5t47 -102.5q0 -49 -24 -80t-68 -65q-31 -23 -46 -40t-15 -39q0 -27 23 -44t71 -38q45 -20 73.5 -37t49 -46.5t20.5 -73.5q0 -65 -45 -102q-48 -39 -144 -39q-57 0 -131 17z" />
    <glyph glyph-name="longs" unicode="&#x17f;" horiz-adv-x="280" 
d="M108 444h-90v35l90 11v81q0 44 8 72t26 48q38 41 118 41q34 0 70 -6v-49q-38 4 -62 4q-56 0 -79 -24q-13 -13 -18 -34.5t-5 -59.5v-563h-58v444z" />
    <glyph glyph-name="t" unicode="t" horiz-adv-x="344" 
d="M137 17q-17 17 -25 44.5t-8 69.5v313h-90v35l90 11v113q30 9 58 12v-125h130v-46h-130v-295q0 -38 3.5 -57.5t14.5 -32.5q20 -22 65 -22q35 0 75 9l4 -47q-39 -13 -88 -13q-68 0 -99 31z" />
    <glyph glyph-name="tbar" unicode="&#x167;" horiz-adv-x="344" 
d="M137 17q-17 17 -25 44.5t-8 69.5v96h-77v35l77 7v175h-90v35l90 11v113q30 9 58 12v-125h130v-46h-130v-173h120v-44h-120v-78q0 -38 3.5 -57.5t14.5 -32.5q20 -22 65 -22q35 0 75 9l4 -47q-39 -13 -88 -13q-68 0 -99 31z" />
    <glyph glyph-name="tcaron" unicode="&#x165;" horiz-adv-x="344" 
d="M239 662q-18 5 -25 14.5t-7 23.5v5q0 18 11 27t26 9h4q18 -1 26.5 -13t8.5 -39q0 -29 -4.5 -63t-13.5 -60h-26v96zM137 17q-17 17 -25 44.5t-8 69.5v313h-90v35l90 11v113q30 9 58 12v-125h130v-46h-130v-295q0 -38 3.5 -57.5t14.5 -32.5q20 -22 65 -22q35 0 75 9l4 -47
q-39 -13 -88 -13q-68 0 -99 31z" />
    <glyph glyph-name="uni0163" unicode="&#x163;" horiz-adv-x="344" 
d="M137 17q-17 17 -25 44.5t-8 69.5v313h-90v35l90 11v113q30 9 58 12v-125h130v-46h-130v-295q0 -38 3.5 -57.5t14.5 -32.5q20 -22 65 -22q35 0 75 9l4 -47q-39 -13 -88 -13q-68 0 -99 31zM212 -152q-18 5 -25 14.5t-7 23.5v5q0 18 11 27t26 9h4q18 -1 26.5 -13t8.5 -39
q0 -29 -4.5 -63t-13.5 -60h-26v96z" />
    <glyph glyph-name="uni021B" unicode="&#x21b;" horiz-adv-x="344" 
d="M137 17q-17 17 -25 44.5t-8 69.5v313h-90v35l90 11v113q30 9 58 12v-125h130v-46h-130v-295q0 -38 3.5 -57.5t14.5 -32.5q20 -22 65 -22q35 0 75 9l4 -47q-39 -13 -88 -13q-68 0 -99 31zM212 -152q-18 5 -25 14.5t-7 23.5v5q0 18 11 27t26 9h4q18 -1 26.5 -13t8.5 -39
q0 -29 -4.5 -63t-13.5 -60h-26v96z" />
    <glyph glyph-name="u" unicode="u" horiz-adv-x="529" 
d="M164 -3.5q-32 10.5 -52 30.5q-21 21 -31 50.5t-10 73.5v339h58v-324q0 -38 6.5 -60.5t21.5 -37.5q29 -29 87 -29q36 0 76 10t77 29v412h58v-490h-46l-4 37q-84 -51 -170 -51q-39 0 -71 10.5z" />
    <glyph glyph-name="uacute" unicode="&#xfa;" horiz-adv-x="529" 
d="M164 -3.5q-32 10.5 -52 30.5q-21 21 -31 50.5t-10 73.5v339h58v-324q0 -38 6.5 -60.5t21.5 -37.5q29 -29 87 -29q36 0 76 10t77 29v412h58v-490h-46l-4 37q-84 -51 -170 -51q-39 0 -71 10.5zM161 603l171 157l38 -50l-186 -136z" />
    <glyph glyph-name="ubreve" unicode="&#x16d;" horiz-adv-x="529" 
d="M164 -3.5q-32 10.5 -52 30.5q-21 21 -31 50.5t-10 73.5v339h58v-324q0 -38 6.5 -60.5t21.5 -37.5q29 -29 87 -29q36 0 76 10t77 29v412h58v-490h-46l-4 37q-84 -51 -170 -51q-39 0 -71 10.5zM174 620.5q-31 34.5 -33 91.5h39q7 -35 26.5 -54.5t59.5 -19.5t59.5 19.5
t26.5 54.5h39q-2 -57 -33 -91.5t-92 -34.5t-92 34.5z" />
    <glyph glyph-name="ucircumflex" unicode="&#xfb;" horiz-adv-x="529" 
d="M164 -3.5q-32 10.5 -52 30.5q-21 21 -31 50.5t-10 73.5v339h58v-324q0 -38 6.5 -60.5t21.5 -37.5q29 -29 87 -29q36 0 76 10t77 29v412h58v-490h-46l-4 37q-84 -51 -170 -51q-39 0 -71 10.5zM120 604l116 142h60l116 -142l-22 -20l-124 111l-124 -111z" />
    <glyph glyph-name="udieresis" unicode="&#xfc;" horiz-adv-x="529" 
d="M164 -3.5q-32 10.5 -52 30.5q-21 21 -31 50.5t-10 73.5v339h58v-324q0 -38 6.5 -60.5t21.5 -37.5q29 -29 87 -29q36 0 76 10t77 29v412h58v-490h-46l-4 37q-84 -51 -170 -51q-39 0 -71 10.5zM132 654v9q0 41 39 41h8q39 0 39 -41v-9q0 -39 -39 -39h-8q-39 0 -39 39z
M314 654v9q0 41 39 41h8q39 0 39 -41v-9q0 -39 -39 -39h-8q-39 0 -39 39z" />
    <glyph glyph-name="ugrave" unicode="&#xf9;" horiz-adv-x="529" 
d="M164 -3.5q-32 10.5 -52 30.5q-21 21 -31 50.5t-10 73.5v339h58v-324q0 -38 6.5 -60.5t21.5 -37.5q29 -29 87 -29q36 0 76 10t77 29v412h58v-490h-46l-4 37q-84 -51 -170 -51q-39 0 -71 10.5zM161 710l38 50l171 -157l-23 -29z" />
    <glyph glyph-name="uhungarumlaut" unicode="&#x171;" horiz-adv-x="529" 
d="M164 -3.5q-32 10.5 -52 30.5q-21 21 -31 50.5t-10 73.5v339h58v-324q0 -38 6.5 -60.5t21.5 -37.5q29 -29 87 -29q36 0 76 10t77 29v412h58v-490h-46l-4 37q-84 -51 -170 -51q-39 0 -71 10.5zM103 606l141 185l46 -43l-159 -166zM283 606l141 185l46 -43l-159 -166z" />
    <glyph glyph-name="umacron" unicode="&#x16b;" horiz-adv-x="529" 
d="M164 -3.5q-32 10.5 -52 30.5q-21 21 -31 50.5t-10 73.5v339h58v-324q0 -38 6.5 -60.5t21.5 -37.5q29 -29 87 -29q36 0 76 10t77 29v412h58v-490h-46l-4 37q-84 -51 -170 -51q-39 0 -71 10.5zM144 667h243v-49h-243v49z" />
    <glyph glyph-name="uogonek" unicode="&#x173;" horiz-adv-x="529" 
d="M342.5 -186q-26.5 25 -26.5 65q0 39 25 67.5t67 57.5l-3 33q-84 -51 -170 -51q-39 0 -71 10.5t-52 30.5q-21 21 -31 50.5t-10 73.5v339h58v-324q0 -38 6.5 -60.5t21.5 -37.5q29 -29 87 -29q36 0 76 10t77 29v412h58v-490q-44 -33 -66 -58t-22 -56q0 -26 16.5 -40
t45.5 -14q21 0 29 1v-41q-18 -3 -42 -3q-47 0 -73.5 25z" />
    <glyph glyph-name="uring" unicode="&#x16f;" horiz-adv-x="529" 
d="M164 -3.5q-32 10.5 -52 30.5q-21 21 -31 50.5t-10 73.5v339h58v-324q0 -38 6.5 -60.5t21.5 -37.5q29 -29 87 -29q36 0 76 10t77 29v412h58v-490h-46l-4 37q-84 -51 -170 -51q-39 0 -71 10.5zM185.5 608.5q-28.5 27.5 -28.5 76.5v4q0 49 28.5 76.5t78.5 27.5h4
q50 0 78.5 -27.5t28.5 -76.5v-4q0 -49 -28.5 -76.5t-78.5 -27.5h-4q-50 0 -78.5 27.5zM267 626q59 0 59 59v4q0 59 -59 59h-3q-58 0 -58 -59v-4q0 -59 58 -59h3z" />
    <glyph glyph-name="utilde" unicode="&#x169;" horiz-adv-x="529" 
d="M164 -3.5q-32 10.5 -52 30.5q-21 21 -31 50.5t-10 73.5v339h58v-324q0 -38 6.5 -60.5t21.5 -37.5q29 -29 87 -29q36 0 76 10t77 29v412h58v-490h-46l-4 37q-84 -51 -170 -51q-39 0 -71 10.5zM296.5 616q-16.5 6 -37.5 16q-15 7 -30 12.5t-27 5.5q-15 0 -24.5 -9.5
t-17.5 -29.5l-36 7q5 42 25 65t51 23q18 0 34 -5.5t39 -16.5q19 -9 31.5 -13.5t24.5 -4.5q15 0 24.5 9.5t17.5 29.5l36 -7q-5 -42 -25 -65t-51 -23q-18 0 -34.5 6z" />
    <glyph glyph-name="v" unicode="v" horiz-adv-x="443" 
d="M19 490h61l144 -429l141 429h59l-170 -490h-62z" />
    <glyph glyph-name="w" unicode="w" horiz-adv-x="683" 
d="M18 490h60l118 -426l114 426h61l131 -432l108 432h55l-131 -490h-66l-127 415l-113 -415h-67z" />
    <glyph glyph-name="wacute" unicode="&#x1e83;" horiz-adv-x="683" 
d="M18 490h60l118 -426l114 426h61l131 -432l108 432h55l-131 -490h-66l-127 415l-113 -415h-67zM237 603l171 157l38 -50l-186 -136z" />
    <glyph glyph-name="wcircumflex" unicode="&#x175;" horiz-adv-x="683" 
d="M18 490h60l118 -426l114 426h61l131 -432l108 432h55l-131 -490h-66l-127 415l-113 -415h-67zM196 604l116 142h60l116 -142l-22 -20l-124 111l-124 -111z" />
    <glyph glyph-name="wdieresis" unicode="&#x1e85;" horiz-adv-x="683" 
d="M18 490h60l118 -426l114 426h61l131 -432l108 432h55l-131 -490h-66l-127 415l-113 -415h-67zM208 654v9q0 41 39 41h8q39 0 39 -41v-9q0 -39 -39 -39h-8q-39 0 -39 39zM390 654v9q0 41 39 41h8q39 0 39 -41v-9q0 -39 -39 -39h-8q-39 0 -39 39z" />
    <glyph glyph-name="wgrave" unicode="&#x1e81;" horiz-adv-x="683" 
d="M18 490h60l118 -426l114 426h61l131 -432l108 432h55l-131 -490h-66l-127 415l-113 -415h-67zM237 710l38 50l171 -157l-23 -29z" />
    <glyph glyph-name="x" unicode="x" horiz-adv-x="430" 
d="M184 243l-160 247h63l132 -203l124 203h63l-160 -245l160 -245h-63l-132 202l-123 -202h-63z" />
    <glyph glyph-name="y" unicode="y" horiz-adv-x="529" 
d="M196 -232l-7 49q30 -5 70 -5t66 6.5t42 20.5q16 15 23 39t7 69v85q-81 -46 -162 -46q-39 0 -71 10.5t-52 30.5q-21 21 -31 50.5t-10 73.5v339h58v-324q0 -38 6.5 -60.5t21.5 -37.5q29 -29 87 -29q36 0 76 10t77 29v412h58v-545q0 -50 -9.5 -83t-30.5 -55
q-45 -46 -146 -46q-44 0 -73 7z" />
    <glyph glyph-name="yacute" unicode="&#xfd;" horiz-adv-x="529" 
d="M196 -232l-7 49q30 -5 70 -5t66 6.5t42 20.5q16 15 23 39t7 69v85q-81 -46 -162 -46q-39 0 -71 10.5t-52 30.5q-21 21 -31 50.5t-10 73.5v339h58v-324q0 -38 6.5 -60.5t21.5 -37.5q29 -29 87 -29q36 0 76 10t77 29v412h58v-545q0 -50 -9.5 -83t-30.5 -55
q-45 -46 -146 -46q-44 0 -73 7zM160 603l171 157l38 -50l-186 -136z" />
    <glyph glyph-name="ycircumflex" unicode="&#x177;" horiz-adv-x="529" 
d="M196 -232l-7 49q30 -5 70 -5t66 6.5t42 20.5q16 15 23 39t7 69v85q-81 -46 -162 -46q-39 0 -71 10.5t-52 30.5q-21 21 -31 50.5t-10 73.5v339h58v-324q0 -38 6.5 -60.5t21.5 -37.5q29 -29 87 -29q36 0 76 10t77 29v412h58v-545q0 -50 -9.5 -83t-30.5 -55
q-45 -46 -146 -46q-44 0 -73 7zM119 604l116 142h60l116 -142l-22 -20l-124 111l-124 -111z" />
    <glyph glyph-name="ydieresis" unicode="&#xff;" horiz-adv-x="529" 
d="M196 -232l-7 49q30 -5 70 -5t66 6.5t42 20.5q16 15 23 39t7 69v85q-81 -46 -162 -46q-39 0 -71 10.5t-52 30.5q-21 21 -31 50.5t-10 73.5v339h58v-324q0 -38 6.5 -60.5t21.5 -37.5q29 -29 87 -29q36 0 76 10t77 29v412h58v-545q0 -50 -9.5 -83t-30.5 -55
q-45 -46 -146 -46q-44 0 -73 7zM131 654v9q0 41 39 41h8q39 0 39 -41v-9q0 -39 -39 -39h-8q-39 0 -39 39zM313 654v9q0 41 39 41h8q39 0 39 -41v-9q0 -39 -39 -39h-8q-39 0 -39 39z" />
    <glyph glyph-name="ygrave" unicode="&#x1ef3;" horiz-adv-x="529" 
d="M196 -232l-7 49q30 -5 70 -5t66 6.5t42 20.5q16 15 23 39t7 69v85q-81 -46 -162 -46q-39 0 -71 10.5t-52 30.5q-21 21 -31 50.5t-10 73.5v339h58v-324q0 -38 6.5 -60.5t21.5 -37.5q29 -29 87 -29q36 0 76 10t77 29v412h58v-545q0 -50 -9.5 -83t-30.5 -55
q-45 -46 -146 -46q-44 0 -73 7zM160 710l38 50l171 -157l-23 -29z" />
    <glyph glyph-name="z" unicode="z" horiz-adv-x="417" 
d="M42 32l267 412h-263v46h333v-33l-264 -412h268v-45h-341v32z" />
    <glyph glyph-name="zacute" unicode="&#x17a;" horiz-adv-x="417" 
d="M42 32l267 412h-263v46h333v-33l-264 -412h268v-45h-341v32zM111 603l171 157l38 -50l-186 -136z" />
    <glyph glyph-name="zcaron" unicode="&#x17e;" horiz-adv-x="417" 
d="M42 32l267 412h-263v46h333v-33l-264 -412h268v-45h-341v32zM70 734l22 20l124 -111l124 111l22 -20l-116 -142h-60z" />
    <glyph glyph-name="zdotaccent" unicode="&#x17c;" horiz-adv-x="417" 
d="M42 32l267 412h-263v46h333v-33l-264 -412h268v-45h-341v32zM170 651v10q0 43 42 43h8q42 0 42 -43v-10q0 -43 -42 -43h-8q-42 0 -42 43z" />
    <glyph glyph-name="ordfeminine" unicode="&#xaa;" horiz-adv-x="400" 
d="M91.5 376q-29.5 27 -29.5 76q0 41 23 67q27 32 106 32h78v30q0 39 -18 55.5t-58 16.5q-44 0 -89 -9l-5 41q20 5 47.5 8.5t48.5 3.5q66 0 94.5 -28t28.5 -92v-221h-39l-4 22q-21 -13 -48.5 -21t-52.5 -8q-53 0 -82.5 27zM228 399.5q24 5.5 41 14.5v96h-76q-45 0 -63 -14
t-18 -44q0 -58 72 -58q20 0 44 5.5z" />
    <glyph glyph-name="ordmasculine" unicode="&#xba;" horiz-adv-x="420" 
d="M99.5 394.5q-39.5 45.5 -39.5 128.5t39.5 128.5t110.5 45.5t110.5 -45.5t39.5 -128.5t-39.5 -128.5t-110.5 -45.5t-110.5 45.5zM307 523q0 127 -97 127t-97 -127t97 -127t97 127z" />
    <glyph glyph-name="uni0394" unicode="&#x394;" horiz-adv-x="603" 
d="M38 16q0 23 9 48l215 620h74l220 -620q9 -25 9 -48v-16h-527v16zM497 51l-200 576l-194 -576h394z" />
    <glyph glyph-name="uni03A9" unicode="&#x3a9;" horiz-adv-x="658" 
d="M83 52h136q-71 54 -113 138.5t-42 188.5q0 97 32 168.5t91.5 110.5t141.5 39t141.5 -39t91.5 -110.5t32 -168.5q0 -104 -42 -188.5t-113 -138.5h136v-52h-209v26q0 13 3.5 20.5t16.5 18.5q71 59 108.5 139t37.5 172q0 124 -51.5 194t-151.5 70t-151.5 -70t-51.5 -194
q0 -92 37.5 -172t108.5 -139q13 -11 16.5 -18.5t3.5 -20.5v-26h-209v52z" />
    <glyph glyph-name="uni03BC" unicode="&#x3bc;" horiz-adv-x="532" 
d="M74 490h58v-324q0 -38 6.5 -60.5t21.5 -37.5q29 -29 87 -29q36 0 76 10t77 29v412h58v-490h-46l-4 37q-84 -51 -170 -51q-65 0 -106 27v-238h-58v715z" />
    <glyph glyph-name="pi" unicode="&#x3c0;" horiz-adv-x="605" 
d="M115 441h-85v45h545v-45h-85v-441h-58v441h-259v-441h-58v441z" />
    <glyph glyph-name="zero" unicode="0" horiz-adv-x="532" 
d="M95 76.5q-53 90.5 -53 264.5q0 175 53 265.5t171 90.5t171 -90.5t53 -265.5q0 -174 -53 -264.5t-171 -90.5t-171 90.5zM393 114.5q36 73.5 36 226.5t-36 227t-127 74t-127 -74t-36 -227t36 -226.5t127 -73.5t127 73.5z" />
    <glyph glyph-name="one" unicode="1" horiz-adv-x="532" 
d="M130 47h119v594h-114v41q66 8 118 8q30 0 41 -8.5t11 -31.5v-603h101v-47h-276v47z" />
    <glyph glyph-name="two" unicode="2" horiz-adv-x="532" 
d="M67 19q0 17 7.5 32t31.5 44l167 205q61 75 86.5 124t25.5 97q0 56 -30 86q-38 38 -131 38q-63 0 -141 -14v47q27 8 69 13.5t82 5.5q110 0 163 -49q26 -24 37.5 -56.5t11.5 -66.5q0 -42 -11.5 -76.5t-38.5 -74.5t-79 -103l-184 -220h325v-51h-388q-3 8 -3 19z" />
    <glyph glyph-name="three" unicode="3" horiz-adv-x="532" 
d="M141.5 -9q-41.5 5 -68.5 12v48q28 -6 66 -9.5t70 -3.5q100 0 144 41q39 36 39 108q0 61 -36 97q-45 43 -149 43h-7v44h8q47 0 78.5 9.5t51.5 30.5q37 39 37 101q0 64 -31 96q-36 38 -127 38q-64 0 -134 -14v47q31 9 71 13.5t77 4.5q104 0 156 -49q48 -46 48 -127
q0 -119 -105 -167q56 -16 89.5 -58t33.5 -109q0 -95 -57 -147q-60 -54 -179 -54q-34 0 -75.5 5z" />
    <glyph glyph-name="four" unicode="4" horiz-adv-x="532" 
d="M363 172h-317q-2 14 -2 22q0 13 3.5 26t12.5 41l144 423h55l-157 -463h261v177h56v-177h83v-49h-83v-172h-56v172z" />
    <glyph glyph-name="five" unicode="5" horiz-adv-x="532" 
d="M153 -10q-37 4 -61 11v49q54 -12 125 -12q181 0 181 153q0 74 -35 112q-23 24 -59 34.5t-98 10.5h-99q-4 18 -3 49l11 287h302v-51h-253l-9 -235h63q68 0 113 -13.5t75 -42.5q53 -51 53 -149q0 -102 -62.5 -154.5t-173.5 -52.5q-33 0 -70 4z" />
    <glyph glyph-name="six" unicode="6" horiz-adv-x="532" 
d="M117.5 69.5q-49.5 83.5 -49.5 236.5q0 240 81 330q56 61 171 61q22 0 52.5 -3.5t51.5 -8.5v-46q-49 7 -98 7q-50 0 -80 -9.5t-52 -31.5q-32 -32 -47 -88t-18 -141q39 16 82.5 25t78.5 9q93 0 142.5 -49.5t49.5 -148.5q0 -105 -52.5 -165.5t-149.5 -60.5
q-113 0 -162.5 83.5zM388.5 81.5q37.5 45.5 37.5 125.5q0 83 -37 118.5t-110 35.5q-34 0 -75.5 -7.5t-75.5 -19.5v-49q0 -249 152 -249q71 0 108.5 45.5z" />
    <glyph glyph-name="seven" unicode="7" horiz-adv-x="532" 
d="M403 633h-328v51h387q2 -8 2 -17q0 -15 -8 -41l-208 -626h-66z" />
    <glyph glyph-name="eight" unicode="8" horiz-adv-x="532" 
d="M151.5 9.5q-48.5 23.5 -74.5 64t-26 92.5q0 66 39.5 118t107.5 83q-54 30 -84 68t-30 95q0 48 23 86t65 59.5t95 21.5t94.5 -22t64.5 -58.5t23 -78.5q0 -61 -33 -103.5t-97 -71.5q77 -38 119.5 -80t42.5 -110q0 -56 -28 -98.5t-77 -65.5t-111 -23q-65 0 -113.5 23.5z
M365 450q31 36 31 84q0 50 -35.5 81.5t-91.5 31.5q-59 0 -95 -31.5t-36 -82.5q0 -49 33.5 -81t99.5 -65q63 27 94 63zM380.5 71q43.5 34 43.5 94q0 45 -24 76t-56 49.5t-97 50.5q-66 -26 -101.5 -69.5t-35.5 -100.5q0 -59 42.5 -96.5t113.5 -37.5t114.5 34z" />
    <glyph glyph-name="nine" unicode="9" horiz-adv-x="532" 
d="M159.5 -10.5q-30.5 3.5 -51.5 8.5v46q49 -7 98 -7q50 0 80 9.5t52 31.5q32 32 47 88t18 141q-39 -16 -82.5 -25t-78.5 -9q-93 0 -142.5 49.5t-49.5 148.5q0 105 52.5 165.5t149.5 60.5q113 0 162.5 -83.5t49.5 -236.5q0 -240 -81 -330q-56 -61 -171 -61q-22 0 -52.5 3.5z
M328.5 329.5q41.5 7.5 75.5 19.5v49q0 249 -152 249q-71 0 -108.5 -45.5t-37.5 -125.5q0 -83 37 -118.5t110 -35.5q34 0 75.5 7.5z" />
    <glyph glyph-name="fraction" unicode="&#x2044;" horiz-adv-x="374" 
d="M332 697h54l-344 -711h-54z" />
    <glyph glyph-name="onehalf" unicode="&#xbd;" horiz-adv-x="900" 
d="M112 341h86v303h-82v40q57 5 99 5q20 0 27 -6.5t7 -21.5v-320h71v-43h-208v43zM596 697h54l-344 -711h-54zM555 18q0 13 5.5 23.5t21.5 30.5l86 102q41 49 54.5 73t13.5 49q0 59 -79 59q-42 0 -86 -8v41q42 10 89 10q69 0 102 -32q25 -25 25 -69q0 -35 -17 -66t-63 -83
l-92 -104h176v-44h-234q-2 10 -2 18z" />
    <glyph glyph-name="onequarter" unicode="&#xbc;" horiz-adv-x="900" 
d="M596 697h54l-344 -711h-54zM112 341h86v303h-82v40q57 5 99 5q20 0 27 -6.5t7 -21.5v-320h71v-43h-208v43zM708 95h-183q-3 6 -3 17q0 12 8 36l87 239h49l-92 -252h134v104h48v-104h44v-40h-44v-95h-48v95z" />
    <glyph glyph-name="threequarters" unicode="&#xbe;" horiz-adv-x="900" 
d="M605 697h54l-344 -711h-54zM103 297v41q43 -9 81 -9q45 0 69.5 19t24.5 57q0 73 -97 73h-12v41h12q91 0 91 68q0 30 -16 46q-20 21 -72 21q-31 0 -78 -7v39q43 9 83 9q70 0 103 -36q25 -28 25 -71q0 -31 -14 -54t-41 -34q31 -12 49 -37t18 -62q0 -45 -29 -76
q-38 -38 -112 -38q-48 0 -85 10zM722 95h-183q-3 6 -3 17q0 12 8 36l87 239h49l-92 -252h134v104h48v-104h44v-40h-44v-95h-48v95z" />
    <glyph glyph-name="uni00B9" unicode="&#xb9;" horiz-adv-x="460" 
d="M130 406h86v303h-82v40q57 5 99 5q20 0 27 -6.5t7 -21.5v-320h71v-43h-208v43z" />
    <glyph glyph-name="uni00B2" unicode="&#xb2;" horiz-adv-x="460" 
d="M102 381q0 13 5.5 23.5t21.5 30.5l86 102q41 49 54.5 73t13.5 49q0 59 -79 59q-42 0 -86 -8v41q42 10 89 10q69 0 102 -32q25 -25 25 -69q0 -35 -17 -66t-63 -83l-92 -104h176v-44h-234q-2 10 -2 18z" />
    <glyph glyph-name="uni00B3" unicode="&#xb3;" horiz-adv-x="460" 
d="M112 362v41q43 -9 81 -9q45 0 69.5 19t24.5 57q0 73 -97 73h-12v41h12q91 0 91 68q0 30 -16 46q-19 21 -72 21q-31 0 -78 -7v39q43 9 83 9q70 0 103 -36q25 -28 25 -71q0 -31 -14 -54t-41 -34q31 -12 49 -37t18 -62q0 -45 -29 -76q-38 -38 -112 -38q-48 0 -85 10z" />
    <glyph glyph-name="asterisk" unicode="*" horiz-adv-x="424" 
d="M80 354l102 125l-150 52l16 47l146 -62l-10 168h56l-10 -168l146 62l16 -47l-150 -52l102 -125l-40 -32l-92 132l-92 -132z" />
    <glyph glyph-name="backslash" unicode="\" horiz-adv-x="442" 
d="M47 697h56l292 -711h-56z" />
    <glyph glyph-name="periodcentered" unicode="&#xb7;" horiz-adv-x="222" 
d="M70 359v5q0 41 39 41h4q39 0 39 -41v-5q0 -39 -39 -39h-4q-39 0 -39 39z" />
    <glyph glyph-name="bullet" unicode="&#x2022;" horiz-adv-x="359" 
d="M90.5 249q-26.5 27 -26.5 87v12q0 60 26.5 87t79.5 27h19q53 0 79.5 -27t26.5 -87v-12q0 -60 -26.5 -87t-79.5 -27h-19q-53 0 -79.5 27z" />
    <glyph glyph-name="colon" unicode=":" horiz-adv-x="222" 
d="M70 359v5q0 41 39 41h4q39 0 39 -41v-5q0 -39 -39 -39h-4q-39 0 -39 39zM70 25v5q0 41 39 41h4q39 0 39 -41v-5q0 -39 -39 -39h-4q-39 0 -39 39z" />
    <glyph glyph-name="comma" unicode="," horiz-adv-x="222" 
d="M102 -16q-20 5 -28 14.5t-8 26.5v5q0 21 11 31t28 10h4q21 -1 30.5 -13.5t9.5 -43.5t-5.5 -72t-14.5 -73h-27v115z" />
    <glyph glyph-name="ellipsis" unicode="&#x2026;" horiz-adv-x="666" 
d="M70 25v5q0 41 39 41h4q39 0 39 -41v-5q0 -39 -39 -39h-4q-39 0 -39 39zM292 25v5q0 41 39 41h4q39 0 39 -41v-5q0 -39 -39 -39h-4q-39 0 -39 39zM514 25v5q0 41 39 41h4q39 0 39 -41v-5q0 -39 -39 -39h-4q-39 0 -39 39z" />
    <glyph glyph-name="exclam" unicode="!" horiz-adv-x="266" 
d="M100 684h66l-9 -514h-48zM92 25v5q0 41 39 41h4q39 0 39 -41v-5q0 -39 -39 -39h-4q-39 0 -39 39z" />
    <glyph glyph-name="exclamdown" unicode="&#xa1;" horiz-adv-x="266" 
d="M174 455v-5q0 -41 -39 -41h-4q-39 0 -39 41v5q0 39 39 39h4q39 0 39 -39zM166 -204h-66l9 514h48z" />
    <glyph glyph-name="numbersign" unicode="#" horiz-adv-x="532" 
d="M119 217h-73v45h81l31 159h-112v45h120l43 218h49l-43 -218h148l43 218h49l-43 -218h74v-45h-82l-31 -159h113v-45h-121l-42 -217h-49l42 217h-148l-42 -217h-49zM324 262l31 159h-148l-31 -159h148z" />
    <glyph glyph-name="period" unicode="." horiz-adv-x="222" 
d="M70 25v5q0 41 39 41h4q39 0 39 -41v-5q0 -39 -39 -39h-4q-39 0 -39 39z" />
    <glyph glyph-name="question" unicode="?" horiz-adv-x="404" 
d="M132 201q0 43 15 75.5t53 77.5l11 13q54 63 72.5 97.5t18.5 73.5q0 50 -26 76q-32 32 -106 32q-63 0 -122 -14l-8 44q26 9 62.5 15t70.5 6q93 0 141 -41q48 -40 48 -116q0 -47 -19.5 -86.5t-71.5 -97.5q-42 -47 -60 -73.5t-24 -50t-6 -62.5h-46q-3 17 -3 31zM118 25v5
q0 41 39 41h4q39 0 39 -41v-5q0 -39 -39 -39h-4q-39 0 -39 39z" />
    <glyph glyph-name="questiondown" unicode="&#xbf;" horiz-adv-x="404" 
d="M286 455v-5q0 -41 -39 -41h-4q-39 0 -39 41v5q0 39 39 39h4q39 0 39 -39zM272 279q0 -43 -15 -75.5t-53 -77.5l-11 -13q-54 -63 -72.5 -97.5t-18.5 -73.5q0 -50 26 -76q32 -32 106 -32q63 0 122 14l8 -44q-26 -9 -62.5 -15t-70.5 -6q-93 0 -141 41q-48 40 -48 116
q0 47 19.5 86.5t71.5 97.5q42 47 60 73.5t24 50t6 62.5h46q3 -16 3 -31z" />
    <glyph glyph-name="quotedbl" unicode="&#x22;" horiz-adv-x="346" 
d="M80 684h57l-7 -187h-43zM209 684h57l-7 -187h-43z" />
    <glyph glyph-name="quotesingle" unicode="'" horiz-adv-x="217" 
d="M80 684h57l-7 -187h-43z" />
    <glyph glyph-name="semicolon" unicode=";" horiz-adv-x="222" 
d="M70 359v5q0 41 39 41h4q39 0 39 -41v-5q0 -39 -39 -39h-4q-39 0 -39 39zM106 -16q-20 5 -28 14.5t-8 26.5v5q0 21 11 31t28 10h4q21 -1 30.5 -13.5t9.5 -43.5t-5.5 -72t-14.5 -73h-27v115z" />
    <glyph glyph-name="slash" unicode="/" horiz-adv-x="442" 
d="M339 697h56l-292 -711h-56z" />
    <glyph glyph-name="underscore" unicode="_" horiz-adv-x="430" 
d="M32 -28h366v-45h-366v45z" />
    <glyph glyph-name="braceleft" unicode="{" horiz-adv-x="344" 
d="M186.5 -182.5q-26.5 24.5 -26.5 85.5v181q0 51 -9.5 80.5t-32 45.5t-63.5 25v50q41 9 63.5 25t32 45.5t9.5 80.5v181q0 61 26.5 85.5t89.5 24.5h29v-50h-23q-28 0 -41.5 -5.5t-18 -19.5t-4.5 -42v-174q0 -54 -7.5 -86t-25 -52t-51.5 -38q34 -18 51.5 -38t25 -52t7.5 -86
v-174q0 -28 4.5 -42t18 -19.5t41.5 -5.5h23v-50h-29q-63 0 -89.5 24.5z" />
    <glyph glyph-name="braceright" unicode="}" horiz-adv-x="344" 
d="M39 -157h23q28 0 41.5 5.5t18 19.5t4.5 42v174q0 54 7.5 86t25 52t51.5 38q-34 18 -51.5 38t-25 52t-7.5 86v174q0 28 -4.5 42t-18 19.5t-41.5 5.5h-23v50h29q63 0 89.5 -24.5t26.5 -85.5v-181q0 -51 9.5 -80.5t32 -45.5t63.5 -25v-50q-41 -9 -63.5 -25t-32 -45.5
t-9.5 -80.5v-181q0 -61 -26.5 -85.5t-89.5 -24.5h-29v50z" />
    <glyph glyph-name="bracketleft" unicode="[" horiz-adv-x="329" 
d="M122 727h175v-50h-115v-834h115v-50h-175v934z" />
    <glyph glyph-name="bracketright" unicode="]" horiz-adv-x="329" 
d="M32 -157h115v834h-115v50h175v-934h-175v50z" />
    <glyph glyph-name="parenleft" unicode="(" horiz-adv-x="316" 
d="M129.5 -18q-49.5 124 -49.5 275t49.5 275t144.5 209l28 -24q-157 -184 -157 -460t157 -460l-28 -24q-95 85 -144.5 209z" />
    <glyph glyph-name="parenright" unicode=")" horiz-adv-x="316" 
d="M14 -203q157 184 157 460t-157 460l28 24q95 -85 144.5 -209t49.5 -275t-49.5 -275t-144.5 -209z" />
    <glyph glyph-name="emdash" unicode="&#x2014;" horiz-adv-x="1000" 
d="M0 285h1000v-51h-1000v51z" />
    <glyph glyph-name="endash" unicode="&#x2013;" horiz-adv-x="500" 
d="M0 285h500v-51h-500v51z" />
    <glyph glyph-name="hyphen" unicode="-" horiz-adv-x="317" 
d="M66 285h185v-51h-185v51z" />
    <glyph glyph-name="uni00AD" unicode="&#xad;" horiz-adv-x="317" 
d="M66 285h185v-51h-185v51z" />
    <glyph glyph-name="guillemotleft" unicode="&#xab;" horiz-adv-x="507" 
d="M111 209q-16 19 -21.5 30t-5.5 23t5.5 23t21.5 30l125 145l29 -21l-119 -177l119 -177l-29 -21zM283 209q-16 19 -21.5 30t-5.5 23t5.5 23t21.5 30l125 145l29 -21l-119 -177l119 -177l-29 -21z" />
    <glyph glyph-name="guillemotright" unicode="&#xbb;" horiz-adv-x="507" 
d="M70 85l119 177l-119 177l29 21l125 -145q16 -19 21.5 -30t5.5 -23t-5.5 -23t-21.5 -30l-125 -145zM242 85l119 177l-119 177l29 21l125 -145q16 -19 21.5 -30t5.5 -23t-5.5 -23t-21.5 -30l-125 -145z" />
    <glyph glyph-name="guilsinglleft" unicode="&#x2039;" horiz-adv-x="335" 
d="M111 209q-16 19 -21.5 30t-5.5 23t5.5 23t21.5 30l125 145l29 -21l-119 -177l119 -177l-29 -21z" />
    <glyph glyph-name="guilsinglright" unicode="&#x203a;" horiz-adv-x="335" 
d="M70 85l119 177l-119 177l29 21l125 -145q16 -19 21.5 -30t5.5 -23t-5.5 -23t-21.5 -30l-125 -145z" />
    <glyph glyph-name="quotedblbase" unicode="&#x201e;" horiz-adv-x="341" 
d="M96 -16q-20 5 -28 14.5t-8 26.5v5q0 21 11 31t28 10h4q21 -1 30.5 -13.5t9.5 -43.5t-5.5 -72t-14.5 -73h-27v115zM224 -16q-20 5 -28 14.5t-8 26.5v5q0 21 11 31t28 10h4q21 -1 30.5 -13.5t9.5 -43.5t-5.5 -72t-14.5 -73h-27v115z" />
    <glyph glyph-name="quotedblleft" unicode="&#x201c;" horiz-adv-x="341" 
d="M79.5 508.5q-9.5 12.5 -9.5 43.5t5.5 72t14.5 73h27v-115q20 -5 28 -14.5t8 -26.5v-5q0 -21 -11 -31t-28 -10h-4q-21 1 -30.5 13.5zM207.5 508.5q-9.5 12.5 -9.5 43.5t5.5 72t14.5 73h27v-115q20 -5 28 -14.5t8 -26.5v-5q0 -21 -11 -31t-28 -10h-4q-21 1 -30.5 13.5z" />
    <glyph glyph-name="quotedblright" unicode="&#x201d;" horiz-adv-x="341" 
d="M96 610q-20 5 -28 14.5t-8 26.5v5q0 21 11 31t28 10h4q21 -1 30.5 -13.5t9.5 -43.5t-5.5 -72t-14.5 -73h-27v115zM224 610q-20 5 -28 14.5t-8 26.5v5q0 21 11 31t28 10h4q21 -1 30.5 -13.5t9.5 -43.5t-5.5 -72t-14.5 -73h-27v115z" />
    <glyph glyph-name="quoteleft" unicode="&#x2018;" horiz-adv-x="213" 
d="M79.5 508.5q-9.5 12.5 -9.5 43.5t5.5 72t14.5 73h27v-115q20 -5 28 -14.5t8 -26.5v-5q0 -21 -11 -31t-28 -10h-4q-21 1 -30.5 13.5z" />
    <glyph glyph-name="quoteright" unicode="&#x2019;" horiz-adv-x="213" 
d="M96 610q-20 5 -28 14.5t-8 26.5v5q0 21 11 31t28 10h4q21 -1 30.5 -13.5t9.5 -43.5t-5.5 -72t-14.5 -73h-27v115z" />
    <glyph glyph-name="quotesinglbase" unicode="&#x201a;" horiz-adv-x="213" 
d="M96 -16q-20 5 -28 14.5t-8 26.5v5q0 21 11 31t28 10h4q21 -1 30.5 -13.5t9.5 -43.5t-5.5 -72t-14.5 -73h-27v115z" />
    <glyph glyph-name="uni00A0" unicode="&#xa0;" horiz-adv-x="200" 
 />
    <glyph glyph-name=".null" 
 />
    <glyph glyph-name="cent" unicode="&#xa2;" horiz-adv-x="532" 
d="M285 -12q-99 9 -149 71t-50 181q0 122 50.5 188t148.5 74v112h44v-110q52 -2 100 -17v-46q-48 12 -100 14v-421q45 0 103 10v-46q-47 -10 -103 -12v-120h-44v122zM285 453q-75 -10 -107.5 -61t-32.5 -150q0 -95 32.5 -144.5t107.5 -60.5v416z" />
    <glyph glyph-name="currency" unicode="&#xa4;" horiz-adv-x="532" 
d="M55 163l78 78q-31 47 -31 109q0 61 31 108l-78 79l31 31l77 -77q42 34 103 34q60 0 103 -34l77 77l31 -31l-79 -79q32 -46 32 -108q0 -63 -32 -109l79 -78l-31 -31l-77 77q-43 -34 -103 -34q-61 0 -103 34l-77 -77zM348.5 257.5q29.5 36.5 29.5 92.5t-29.5 92.5
t-82.5 36.5t-82.5 -36.5t-29.5 -92.5t29.5 -92.5t82.5 -36.5t82.5 36.5z" />
    <glyph glyph-name="dollar" unicode="$" horiz-adv-x="532" 
d="M248 -14q-49 0 -98.5 7t-86.5 18v51q37 -11 87 -18t98 -7v292q-60 25 -97 46.5t-62.5 57t-25.5 89.5q0 73 44 119q47 49 141 55v111h44v-110q35 -1 74 -6.5t68 -15.5v-48q-30 8 -69.5 13t-72.5 6v-274q57 -25 94 -48t61.5 -60t24.5 -92q0 -82 -47 -128t-133 -55v-122h-44
v119zM248 644q-128 -11 -128 -116q0 -49 33 -79.5t95 -57.5v253zM380.5 78q33.5 33 34.5 92q0 51 -32 82.5t-91 57.5v-270q55 5 88.5 38z" />
    <glyph glyph-name="Euro" unicode="&#x20ac;" horiz-adv-x="532" 
d="M184.5 50.5q-65.5 64.5 -80.5 200.5h-74v32l71 9q-1 15 -1 46v26h-70v32l72 9q12 152 85 226q64 66 182 66q65 0 131 -21v-46q-65 18 -126 18q-89 0 -139 -47q-62 -59 -74 -193h219v-44h-221v-24q0 -31 1 -45h220v-44h-217q12 -113 64 -165t153 -52q57 0 130 15v-45
q-72 -18 -137 -18q-123 0 -188.5 64.5z" />
    <glyph glyph-name="florin" unicode="&#x192;" horiz-adv-x="532" 
d="M27 -244v47q29 -4 61 -4q60 0 84 27q13 15 20.5 39t10.5 65l28 371h-116v32l119 11l16 208q4 49 14.5 80.5t29.5 52.5q40 43 123 43q31 0 65 -6v-47q-29 4 -61 4q-60 0 -84 -27q-13 -15 -20.5 -39t-10.5 -65l-15 -202h131v-45h-135l-28 -375q-4 -49 -14.5 -80.5
t-29.5 -52.5q-40 -43 -123 -43q-31 0 -65 6z" />
    <glyph glyph-name="sterling" unicode="&#xa3;" horiz-adv-x="532" 
d="M82 27q0 16 5.5 27t22.5 29q36 37 51 70.5t15 72.5q0 38 -17 108h-85v30l75 9q-10 40 -15.5 70.5t-5.5 60.5q0 95 54 144q55 49 157 49q30 0 67.5 -4.5t67.5 -12.5v-47q-67 12 -128 12q-87 0 -125 -38q-36 -36 -36 -104q0 -47 20 -125h179v-44h-167q16 -66 16 -108
q0 -50 -23.5 -90t-71.5 -85h352v-51h-404q-4 16 -4 27z" />
    <glyph glyph-name="yen" unicode="&#xa5;" horiz-adv-x="532" 
d="M233 154h-138v44h138v54h-138v44h131l-188 388h63l164 -351l171 351h59l-197 -388h129v-44h-138v-54h138v-44h-138v-154h-56v154z" />
    <glyph glyph-name="uni2126" unicode="&#x2126;" horiz-adv-x="658" 
d="M83 52h136q-71 54 -113 138.5t-42 188.5q0 97 32 168.5t91.5 110.5t141.5 39t141.5 -39t91.5 -110.5t32 -168.5q0 -104 -42 -188.5t-113 -138.5h136v-52h-209v26q0 13 3.5 20.5t16.5 18.5q71 59 108.5 139t37.5 172q0 124 -51.5 194t-151.5 70t-151.5 -70t-51.5 -194
q0 -92 37.5 -172t108.5 -139q13 -11 16.5 -18.5t3.5 -20.5v-26h-209v52z" />
    <glyph glyph-name="approxequal" unicode="&#x2248;" horiz-adv-x="513" 
d="M307.5 382q-19.5 4 -36.5 9t-23 7q-53 17 -76 17q-15 0 -22 -6.5t-11 -24.5l-35 5q6 75 64 75q20 0 42 -5t53 -15q55 -17 79 -17q15 0 22 6.5t11 24.5l35 -5q-6 -75 -64 -75q-19 0 -38.5 4zM307.5 201q-19.5 4 -36.5 9t-23 7q-53 17 -76 17q-15 0 -22 -6.5t-11 -24.5
l-35 5q6 75 64 75q20 0 42 -5t53 -15q55 -17 79 -17q15 0 22 6.5t11 24.5l35 -5q-6 -75 -64 -75q-19 0 -38.5 4z" />
    <glyph glyph-name="asciitilde" unicode="~" horiz-adv-x="513" 
d="M81 330q2 38 20.5 57.5t57.5 19.5q21 0 43.5 -4.5t53.5 -13.5q34 -9 54.5 -13.5t41.5 -4.5q36 0 43 38l38 -10q-2 -38 -20.5 -57.5t-57.5 -19.5q-21 0 -43.5 4.5t-53.5 13.5q-34 9 -54.5 13.5t-41.5 4.5q-36 0 -43 -38z" />
    <glyph glyph-name="divide" unicode="&#xf7;" horiz-adv-x="513" 
d="M216 478v3q0 40 38 40h4q38 0 38 -40v-3q0 -40 -38 -40h-4q-38 0 -38 40zM100 357h313v-49h-313v49zM216 179v3q0 40 38 40h4q38 0 38 -40v-3q0 -40 -38 -40h-4q-38 0 -38 40z" />
    <glyph glyph-name="equal" unicode="=" horiz-adv-x="513" 
d="M100 442h313v-51h-313v51zM100 274h313v-51h-313v51z" />
    <glyph glyph-name="greater" unicode="&#x3e;" horiz-adv-x="513" 
d="M103 201l260 128l-260 129v56l307 -157v-55l-307 -157v56z" />
    <glyph glyph-name="greaterequal" unicode="&#x2265;" horiz-adv-x="513" 
d="M103 201l260 128l-260 129v56l307 -157v-55l-307 -157v56zM100 49h313v-49h-313v49z" />
    <glyph glyph-name="uni2206" unicode="&#x2206;" horiz-adv-x="603" 
d="M38 16q0 23 9 48l215 620h74l220 -620q9 -25 9 -48v-16h-527v16zM497 51l-200 576l-194 -576h394z" />
    <glyph glyph-name="infinity" unicode="&#x221e;" horiz-adv-x="685" 
d="M410 197.5q-32 27.5 -59 76.5q-66 -102 -153 -102q-71 0 -106.5 48t-35.5 121q0 71 35.5 118.5t104.5 47.5q49 0 81.5 -26.5t58.5 -74.5q64 99 151 99q71 0 106.5 -48t35.5 -121q0 -71 -35.5 -118.5t-104.5 -47.5q-47 0 -79 27.5zM269 243q29 24 60 75q-26 51 -41 76.5
t-38 44.5t-55 19q-41 0 -64.5 -31t-23.5 -86q0 -57 24 -89.5t69 -32.5q40 0 69 24zM554.5 250q23.5 31 23.5 86q0 57 -24 89.5t-69 32.5q-39 0 -68 -23.5t-59 -71.5q26 -55 40 -80t37 -44.5t55 -19.5q41 0 64.5 31z" />
    <glyph glyph-name="integral" unicode="&#x222b;" horiz-adv-x="513" 
d="M70 -234v46q16 -4 52 -4q31 0 50 5t31 16q15 13 20.5 34.5t5.5 66.5v650q0 48 8.5 77.5t27.5 48.5t45 28t65 9q37 0 68 -5v-46q-16 4 -52 4q-31 0 -50 -5t-31 -16q-15 -13 -20.5 -34.5t-5.5 -66.5v-650q0 -48 -8.5 -77.5t-27.5 -48.5t-45 -28t-65 -9q-37 0 -68 5z" />
    <glyph glyph-name="less" unicode="&#x3c;" horiz-adv-x="513" 
d="M103 302v55l307 157v-56l-260 -129l260 -128v-56z" />
    <glyph glyph-name="lessequal" unicode="&#x2264;" horiz-adv-x="513" 
d="M103 302v55l307 157v-56l-260 -129l260 -128v-56zM100 49h313v-49h-313v49z" />
    <glyph glyph-name="logicalnot" unicode="&#xac;" horiz-adv-x="513" 
d="M362 391h-262v51h313v-219h-51v168z" />
    <glyph glyph-name="uni00B5" unicode="&#xb5;" horiz-adv-x="532" 
d="M74 490h58v-324q0 -38 6.5 -60.5t21.5 -37.5q29 -29 87 -29q36 0 76 10t77 29v412h58v-490h-46l-4 37q-84 -51 -170 -51q-65 0 -106 27v-238h-58v715z" />
    <glyph glyph-name="minus" unicode="&#x2212;" horiz-adv-x="513" 
d="M100 357h313v-49h-313v49z" />
    <glyph glyph-name="multiply" unicode="&#xd7;" horiz-adv-x="513" 
d="M129 239l93 93l-93 94l34 34l93 -93l94 93l34 -34l-93 -94l93 -93l-34 -34l-94 93l-93 -93z" />
    <glyph glyph-name="notequal" unicode="&#x2260;" horiz-adv-x="513" 
d="M194 223h-94v51h111l40 117h-151v51h169l50 147h52l-51 -147h93v-51h-111l-40 -117h151v-51h-169l-50 -146h-50z" />
    <glyph glyph-name="partialdiff" unicode="&#x2202;" horiz-adv-x="532" 
d="M106.5 46.5q-52.5 60.5 -52.5 165.5q0 99 49.5 148.5t142.5 49.5q35 0 78.5 -9t82.5 -25q-3 87 -17 142.5t-46 86.5q-22 21 -52.5 31t-79.5 10t-98 -7v47q21 5 51 8t55 3q114 0 169 -61q41 -46 60 -127.5t19 -202.5q0 -153 -49.5 -236.5t-162.5 -83.5q-97 0 -149.5 60.5z
M408 285v49q-34 12 -75.5 19.5t-75.5 7.5q-73 0 -109.5 -35.5t-36.5 -118.5q0 -80 37 -125.5t108 -45.5q152 0 152 249z" />
    <glyph glyph-name="percent" unicode="%" horiz-adv-x="892" 
d="M96.5 345.5q-36.5 52.5 -36.5 149.5t36.5 149.5t111.5 52.5t111.5 -52.5t36.5 -149.5t-36.5 -149.5t-111.5 -52.5t-111.5 52.5zM591 697h54l-344 -711h-54zM282 376.5q22 36.5 22 118.5t-22 118.5t-74 36.5t-74 -36.5t-22 -118.5t22 -118.5t74 -36.5t74 36.5zM572.5 38.5
q-36.5 52.5 -36.5 149.5t36.5 149.5t111.5 52.5t111.5 -52.5t36.5 -149.5t-36.5 -149.5t-111.5 -52.5t-111.5 52.5zM758 69.5q22 36.5 22 118.5t-22 118.5t-74 36.5t-74 -36.5t-22 -118.5t22 -118.5t74 -36.5t74 36.5z" />
    <glyph glyph-name="perthousand" unicode="&#x2030;" horiz-adv-x="1242" 
d="M96.5 345.5q-36.5 52.5 -36.5 149.5t36.5 149.5t111.5 52.5t111.5 -52.5t36.5 -149.5t-36.5 -149.5t-111.5 -52.5t-111.5 52.5zM591 697h54l-344 -711h-54zM282 376.5q22 36.5 22 118.5t-22 118.5t-74 36.5t-74 -36.5t-22 -118.5t22 -118.5t74 -36.5t74 36.5zM572.5 38.5
q-36.5 52.5 -36.5 149.5t36.5 149.5t111.5 52.5t111.5 -52.5t36.5 -149.5t-36.5 -149.5t-111.5 -52.5t-111.5 52.5zM922.5 38.5q-36.5 52.5 -36.5 149.5t36.5 149.5t111.5 52.5t111.5 -52.5t36.5 -149.5t-36.5 -149.5t-111.5 -52.5t-111.5 52.5zM758 69.5q22 36.5 22 118.5
t-22 118.5t-74 36.5t-74 -36.5t-22 -118.5t22 -118.5t74 -36.5t74 36.5zM1108 69.5q22 36.5 22 118.5t-22 118.5t-74 36.5t-74 -36.5t-22 -118.5t22 -118.5t74 -36.5t74 36.5z" />
    <glyph glyph-name="plus" unicode="+" horiz-adv-x="513" 
d="M232 308h-132v49h132v132h49v-132h132v-49h-132v-132h-49v132z" />
    <glyph glyph-name="plusminus" unicode="&#xb1;" horiz-adv-x="513" 
d="M232 308h-132v49h132v132h49v-132h132v-49h-132v-132h-49v132zM100 49h313v-49h-313v49z" />
    <glyph glyph-name="product" unicode="&#x220f;" horiz-adv-x="717" 
d="M144 632h-94v52h617v-52h-94v-857h-60v857h-309v-857h-60v857z" />
    <glyph glyph-name="radical" unicode="&#x221a;" horiz-adv-x="641" 
d="M141 443h-67v47h110l156 -420l222 661h55l-248 -731h-60z" />
    <glyph glyph-name="summation" unicode="&#x2211;" horiz-adv-x="599" 
d="M66 -183l302 418l-299 406v43h465v-52h-392l292 -397l-301 -408h406v-52h-473v42z" />
    <glyph glyph-name="lozenge" unicode="&#x25ca;" horiz-adv-x="558" 
d="M67 285q-12 20 -17.5 33t-5.5 24t5.5 24t17.5 33l179 285h66l179 -285q12 -20 17.5 -33t5.5 -24t-5.5 -24t-17.5 -33l-179 -285h-66zM464 342l-185 300l-185 -300l185 -300z" />
    <glyph glyph-name="uniF8FF" unicode="&#xf8ff;" horiz-adv-x="606" 
d="M100 684h406v-66h-338v-550h75v-68h-143v684zM235 277h205v69h-205v203h271v-68h-202v-67h202v-204h-271v67z" />
    <glyph glyph-name="bar" unicode="|" horiz-adv-x="226" 
d="M88 743h50v-996h-50v996z" />
    <glyph glyph-name="brokenbar" unicode="&#xa6;" horiz-adv-x="226" 
d="M88 743h50v-386h-50v386zM88 134h50v-387h-50v387z" />
    <glyph glyph-name="at" unicode="@" horiz-adv-x="748" 
d="M133 80q-93 94 -93 259q0 108 41 189t117.5 125t178.5 44q99 0 173 -40t114 -113.5t40 -172.5q0 -56 -16 -101t-44 -69q-40 -36 -104 -36q-56 0 -87 25q-20 -13 -47 -20t-52 -7q-54 0 -82.5 28t-28.5 74q0 45 23 69q15 17 40.5 25.5t70.5 8.5h66v29q0 28 -3 41.5
t-11 22.5q-17 17 -66 17q-43 0 -85 -7l-2 39q20 5 47 8t48 3q66 0 96 -30q26 -26 26 -93v-183q27 -7 50 -7q42 0 69 24q21 19 32 53.5t11 80.5q0 134 -73.5 209.5t-203.5 75.5q-91 0 -155 -39t-97 -109t-33 -163q0 -149 80 -228.5t236 -79.5q39 0 93.5 6t89.5 14v-43
q-37 -10 -92 -16.5t-101 -6.5q-173 0 -266 94zM408.5 210.5q20.5 4.5 34.5 12.5v107h-69q-50 0 -68 -21q-13 -14 -13 -42q0 -30 16.5 -45.5t57.5 -15.5q21 0 41.5 4.5z" />
    <glyph glyph-name="ampersand" unicode="&#x26;" horiz-adv-x="665" 
d="M485 75q-43 -44 -99 -67.5t-118 -23.5q-60 0 -107.5 23.5t-74 66.5t-26.5 100q0 68 39 119t111 90q-49 57 -68.5 94t-19.5 79q0 65 42 102t107 37q62 0 102 -36t40 -97q0 -53 -31 -101t-97 -85l200 -222q44 74 50 177h49q-3 -126 -65 -215l104 -115l-40 -34zM339 481
q24 36 24 79q0 40 -25 65.5t-67 25.5q-45 0 -71 -24.5t-26 -67.5q0 -36 18.5 -68t64.5 -84q58 38 82 74zM373.5 53.5q45.5 19.5 80.5 57.5l-216 240q-119 -66 -119 -179q0 -62 42.5 -100t113.5 -38q53 0 98.5 19.5z" />
    <glyph glyph-name="paragraph" unicode="&#xb6;" horiz-adv-x="570" 
d="M245 343q-93 0 -146.5 44.5t-53.5 125.5q0 83 46 127t127 44h307v-52h-70v-835h-59v835h-92v-835h-59v546z" />
    <glyph glyph-name="copyright" unicode="&#xa9;" horiz-adv-x="788" 
d="M207.5 30.5q-77.5 44.5 -117.5 125t-40 186.5t40 186t117.5 124.5t186.5 44.5t186.5 -44.5t117.5 -124.5t40 -186t-40 -186.5t-117.5 -125t-186.5 -44.5t-186.5 44.5zM608.5 114.5q77.5 82.5 77.5 227.5t-77.5 227t-214.5 82t-214.5 -82t-77.5 -227t77.5 -227.5
t214.5 -82.5t214.5 82.5zM302.5 210.5q-38.5 43.5 -38.5 133.5q0 86 37.5 132t104.5 46q47 0 79 -13l-5 -39q-30 10 -67 10q-53 0 -76 -33t-23 -103q0 -135 99 -135q35 0 68 8l1 -40q-33 -10 -70 -10q-71 0 -109.5 43.5z" />
    <glyph glyph-name="registered" unicode="&#xae;" horiz-adv-x="788" 
d="M207.5 30.5q-77.5 44.5 -117.5 125t-40 186.5t40 186t117.5 124.5t186.5 44.5t186.5 -44.5t117.5 -124.5t40 -186t-40 -186.5t-117.5 -125t-186.5 -44.5t-186.5 44.5zM608.5 114.5q77.5 82.5 77.5 227.5t-77.5 227t-214.5 82t-214.5 -82t-77.5 -227t77.5 -227.5
t214.5 -82.5t214.5 82.5zM288 518h100q74 0 102 -28q25 -24 25 -75q0 -36 -16.5 -61.5t-47.5 -35.5l71 -143h-51l-64 135h-72v-135h-47v343zM391 351q40 0 57 14.5t17 52.5q0 33 -16.5 46t-58.5 13h-55v-126h56z" />
    <glyph glyph-name="section" unicode="&#xa7;" horiz-adv-x="536" 
d="M121 4l5 43q65 -16 133 -16q64 0 100.5 20t36.5 63q0 33 -21 53t-71 32l-78 18q-75 18 -105.5 49t-30.5 87q0 32 14 61.5t42 49.5q-52 35 -52 103q0 67 49.5 98.5t132.5 31.5q54 0 124 -17l-8 -42q-58 14 -115 14q-66 0 -99.5 -18.5t-33.5 -62.5q0 -35 19.5 -55.5
t70.5 -32.5l76 -18q76 -18 106 -47.5t30 -87.5q0 -32 -14 -60t-41 -49q55 -35 55 -107q0 -65 -48.5 -96.5t-134.5 -31.5q-71 0 -142 18zM384 279q12 23 12 48q0 38 -21 57t-79 32l-75 18q-24 5 -35 10q-22 -14 -34 -38.5t-12 -49.5q0 -35 22 -56t77 -33l79 -18l31 -9
q23 16 35 39z" />
    <glyph glyph-name="trademark" unicode="&#x2122;" horiz-adv-x="647" 
d="M115 643h-99v41h245v-41h-99v-278h-47v278zM313 684h47l100 -208l105 208h46v-319h-46v227l-88 -174h-35l-85 176v-229h-44v319z" />
    <glyph glyph-name="degree" unicode="&#xb0;" horiz-adv-x="446" 
d="M108 397.5q-44 46.5 -44 126.5t44 126.5t115 46.5t115 -46.5t44 -126.5t-44 -126.5t-115 -46.5t-115 46.5zM300.5 432q26.5 33 26.5 92t-26.5 92t-77.5 33t-77.5 -33t-26.5 -92t26.5 -92t77.5 -33t77.5 33z" />
    <glyph glyph-name="estimated" unicode="&#x212e;" horiz-adv-x="874" 
d="M238.5 33.5q-91.5 47.5 -145 129t-53.5 178.5t53.5 179t145 129.5t199.5 47.5q107 0 198 -47.5t144.5 -129.5t53.5 -179v-8h-642q-7 0 -7 -6v-194q0 -10 11 -23q46 -48 109 -75t134 -27q76 0 142 31t112 85h59q-57 -64 -139 -101t-175 -37q-108 0 -199.5 47.5zM682 352
q7 0 7 6v196q0 12 -12 24q-46 46 -108 72t-130 26q-71 0 -133.5 -26.5t-109.5 -74.5q-11 -13 -11 -26v-191q0 -6 7 -6h490z" />
    <glyph glyph-name="uni2113" unicode="&#x2113;" horiz-adv-x="210" 
d="M76 715h58v-715h-58v715z" />
    <glyph glyph-name="uni2116" unicode="&#x2116;" horiz-adv-x="1016" 
d="M88 684h41l395 -575v575h54v-684h-45l-391 570v-570h-54v684zM699 287.5q-45 47.5 -45 131.5t45 131.5t117 47.5t117 -47.5t45 -131.5t-45 -131.5t-117 -47.5t-117 47.5zM897.5 319.5q29.5 35.5 29.5 99.5t-29.5 99.5t-81.5 35.5t-81.5 -35.5t-29.5 -99.5t29.5 -99.5
t81.5 -35.5t81.5 35.5z" />
    <glyph glyph-name="asciicircum" unicode="^" horiz-adv-x="513" 
d="M233 684h48l160 -267h-55l-129 223l-129 -223h-55z" />
    <glyph glyph-name="dagger" unicode="&#x2020;" horiz-adv-x="491" 
d="M225 391l-195 -9v53l195 -9l-6 258h53l-6 -258l195 9v-53l-195 9l6 -628h-53z" />
    <glyph glyph-name="daggerdbl" unicode="&#x2021;" horiz-adv-x="491" 
d="M225 21l-195 -9v53l195 -9v335l-195 -9v53l195 -9l-6 258h53l-6 -258l195 9v-53l-195 9v-335l195 9v-53l-195 9l6 -258h-53z" />
    <glyph glyph-name="acutecomb" unicode="&#x301;" 
d="M-305 603l171 157l38 -50l-186 -136z" />
    <glyph glyph-name="uni0306" unicode="&#x306;" 
d="M-292 620.5q-31 34.5 -33 91.5h39q7 -35 26.5 -54.5t59.5 -19.5t59.5 19.5t26.5 54.5h39q-2 -57 -33 -91.5t-92 -34.5t-92 34.5z" />
    <glyph glyph-name="uni030C" unicode="&#x30c;" 
d="M-346 734l22 20l124 -111l124 111l22 -20l-116 -142h-60z" />
    <glyph glyph-name="uni0327" unicode="&#x327;" 
d="M-280 -202v40q35 -7 63 -7q50 0 50 29q0 14 -12.5 21.5t-36.5 15.5q-29 9 -45 20t-16 33q0 27 24 53h31q-11 -19 -11 -34q0 -13 10.5 -20t33.5 -15q33 -10 51 -24.5t18 -47.5q0 -34 -24 -53.5t-68 -19.5q-34 0 -68 9z" />
    <glyph glyph-name="uni0302" unicode="&#x302;" 
d="M-346 604l116 142h60l116 -142l-22 -20l-124 111l-124 -111z" />
    <glyph glyph-name="uni0326" unicode="&#x326;" 
d="M-208 -152q-18 5 -25 14.5t-7 23.5v5q0 18 11 27t26 9h4q18 -1 26.5 -13t8.5 -39q0 -29 -4.5 -63t-13.5 -60h-26v96z" />
    <glyph glyph-name="uni0308" unicode="&#x308;" 
d="M-334 654v9q0 41 39 41h8q39 0 39 -41v-9q0 -39 -39 -39h-8q-39 0 -39 39zM-152 654v9q0 41 39 41h8q39 0 39 -41v-9q0 -39 -39 -39h-8q-39 0 -39 39z" />
    <glyph glyph-name="uni0307" unicode="&#x307;" 
d="M-246 651v10q0 43 42 43h8q42 0 42 -43v-10q0 -43 -42 -43h-8q-42 0 -42 43z" />
    <glyph glyph-name="gravecomb" unicode="&#x300;" 
d="M-305 710l38 50l171 -157l-23 -29z" />
    <glyph glyph-name="uni030B" unicode="&#x30b;" 
d="M-384 606l141 185l46 -43l-159 -166zM-204 606l141 185l46 -43l-159 -166z" />
    <glyph glyph-name="uni0304" unicode="&#x304;" 
d="M-322 667h243v-49h-243v49z" />
    <glyph glyph-name="uni0328" unicode="&#x328;" 
d="M-262 -186.5q-25 24.5 -25 65.5q0 43 27.5 79t70.5 58l48 -1q-47 -28 -71 -62t-24 -67q0 -27 15.5 -40.5t43.5 -13.5q18 0 63 6v-38q-46 -11 -76 -11q-47 0 -72 24.5z" />
    <glyph glyph-name="uni030A" unicode="&#x30a;" 
d="M-280.5 608.5q-28.5 27.5 -28.5 76.5v4q0 49 28.5 76.5t78.5 27.5h4q50 0 78.5 -27.5t28.5 -76.5v-4q0 -49 -28.5 -76.5t-78.5 -27.5h-4q-50 0 -78.5 27.5zM-199 626q59 0 59 59v4q0 59 -59 59h-3q-58 0 -58 -59v-4q0 -59 58 -59h3z" />
    <glyph glyph-name="tildecomb" unicode="&#x303;" 
d="M-169.5 616q-16.5 6 -37.5 16q-15 7 -30 12.5t-27 5.5q-15 0 -24.5 -9.5t-17.5 -29.5l-36 7q5 42 25 65t51 23q18 0 34 -5.5t39 -16.5q19 -9 31.5 -13.5t24.5 -4.5q15 0 24.5 9.5t17.5 29.5l36 -7q-5 -42 -25 -65t-51 -23q-18 0 -34.5 6z" />
    <glyph glyph-name="acutecomb.case" 
d="M-305 783l171 157l38 -50l-186 -136z" />
    <glyph glyph-name="uni0306.case" 
d="M-292 800.5q-31 34.5 -33 91.5h39q7 -35 26.5 -54.5t59.5 -19.5t59.5 19.5t26.5 54.5h39q-2 -57 -33 -91.5t-92 -34.5t-92 34.5z" />
    <glyph glyph-name="uni030C.case" 
d="M-346 904l22 20l124 -111l124 111l22 -20l-116 -142h-60z" />
    <glyph glyph-name="uni0302.case" 
d="M-346 774l116 142h60l116 -142l-22 -20l-124 111l-124 -111z" />
    <glyph glyph-name="uni0308.case" 
d="M-334 834v9q0 41 39 41h8q39 0 39 -41v-9q0 -39 -39 -39h-8q-39 0 -39 39zM-152 834v9q0 41 39 41h8q39 0 39 -41v-9q0 -39 -39 -39h-8q-39 0 -39 39z" />
    <glyph glyph-name="uni0307.case" 
d="M-246 831v10q0 43 42 43h8q42 0 42 -43v-10q0 -43 -42 -43h-8q-42 0 -42 43z" />
    <glyph glyph-name="gravecomb.case" 
d="M-305 890l38 50l171 -157l-23 -29z" />
    <glyph glyph-name="uni030B.case" 
d="M-384 786l141 185l46 -43l-159 -166zM-204 786l141 185l46 -43l-159 -166z" />
    <glyph glyph-name="uni0304.case" 
d="M-322 857h243v-49h-243v49z" />
    <glyph glyph-name="uni030A.case" 
d="M-280.5 788.5q-28.5 27.5 -28.5 76.5v4q0 49 28.5 76.5t78.5 27.5h4q50 0 78.5 -27.5t28.5 -76.5v-4q0 -49 -28.5 -76.5t-78.5 -27.5h-4q-50 0 -78.5 27.5zM-199 806q59 0 59 59v4q0 59 -59 59h-3q-58 0 -58 -59v-4q0 -59 58 -59h3z" />
    <glyph glyph-name="tildecomb.case" 
d="M-169.5 796q-16.5 6 -37.5 16q-15 7 -30 12.5t-27 5.5q-15 0 -24.5 -9.5t-17.5 -29.5l-36 7q5 42 25 65t51 23q18 0 34 -5.5t39 -16.5q19 -9 31.5 -13.5t24.5 -4.5q15 0 24.5 9.5t17.5 29.5l36 -7q-5 -42 -25 -65t-51 -23q-18 0 -34.5 6z" />
    <glyph glyph-name="acute" unicode="&#xb4;" horiz-adv-x="400" 
d="M95 603l171 157l38 -50l-186 -136z" />
    <glyph glyph-name="breve" unicode="&#x2d8;" horiz-adv-x="400" 
d="M108 620.5q-31 34.5 -33 91.5h39q7 -35 26.5 -54.5t59.5 -19.5t59.5 19.5t26.5 54.5h39q-2 -57 -33 -91.5t-92 -34.5t-92 34.5z" />
    <glyph glyph-name="caron" unicode="&#x2c7;" horiz-adv-x="400" 
d="M54 734l22 20l124 -111l124 111l22 -20l-116 -142h-60z" />
    <glyph glyph-name="cedilla" unicode="&#xb8;" horiz-adv-x="400" 
d="M120 -202v40q35 -7 63 -7q50 0 50 29q0 14 -12.5 21.5t-36.5 15.5q-29 9 -45 20t-16 33q0 27 24 53h31q-11 -19 -11 -34q0 -13 10.5 -20t33.5 -15q33 -10 51 -24.5t18 -47.5q0 -34 -24 -53.5t-68 -19.5q-34 0 -68 9z" />
    <glyph glyph-name="circumflex" unicode="&#x2c6;" horiz-adv-x="400" 
d="M54 604l116 142h60l116 -142l-22 -20l-124 111l-124 -111z" />
    <glyph glyph-name="dieresis" unicode="&#xa8;" horiz-adv-x="400" 
d="M66 654v9q0 41 39 41h8q39 0 39 -41v-9q0 -39 -39 -39h-8q-39 0 -39 39zM248 654v9q0 41 39 41h8q39 0 39 -41v-9q0 -39 -39 -39h-8q-39 0 -39 39z" />
    <glyph glyph-name="dotaccent" unicode="&#x2d9;" horiz-adv-x="400" 
d="M154 651v10q0 43 42 43h8q42 0 42 -43v-10q0 -43 -42 -43h-8q-42 0 -42 43z" />
    <glyph glyph-name="grave" unicode="`" horiz-adv-x="400" 
d="M95 710l38 50l171 -157l-23 -29z" />
    <glyph glyph-name="hungarumlaut" unicode="&#x2dd;" horiz-adv-x="400" 
d="M16 606l141 185l46 -43l-159 -166zM196 606l141 185l46 -43l-159 -166z" />
    <glyph glyph-name="macron" unicode="&#xaf;" horiz-adv-x="400" 
d="M78 667h243v-49h-243v49z" />
    <glyph glyph-name="ogonek" unicode="&#x2db;" horiz-adv-x="400" 
d="M138 -186.5q-25 24.5 -25 65.5q0 43 27.5 79t70.5 58l48 -1q-47 -28 -71 -62t-24 -67q0 -27 15.5 -40.5t43.5 -13.5q18 0 63 6v-38q-46 -11 -76 -11q-47 0 -72 24.5z" />
    <glyph glyph-name="ring" unicode="&#x2da;" horiz-adv-x="400" 
d="M119.5 608.5q-28.5 27.5 -28.5 76.5v4q0 49 28.5 76.5t78.5 27.5h4q50 0 78.5 -27.5t28.5 -76.5v-4q0 -49 -28.5 -76.5t-78.5 -27.5h-4q-50 0 -78.5 27.5zM201 626q59 0 59 59v4q0 59 -59 59h-3q-58 0 -58 -59v-4q0 -59 58 -59h3z" />
    <glyph glyph-name="tilde" unicode="&#x2dc;" horiz-adv-x="400" 
d="M230.5 616q-16.5 6 -37.5 16q-15 7 -30 12.5t-27 5.5q-15 0 -24.5 -9.5t-17.5 -29.5l-36 7q5 42 25 65t51 23q18 0 34 -5.5t39 -16.5q19 -9 31.5 -13.5t24.5 -4.5q15 0 24.5 9.5t17.5 29.5l36 -7q-5 -42 -25 -65t-51 -23q-18 0 -34.5 6z" />
    <glyph glyph-name="acute.case" horiz-adv-x="400" 
d="M95 783l171 157l38 -50l-186 -136z" />
    <glyph glyph-name="breve.case" horiz-adv-x="400" 
d="M108 800.5q-31 34.5 -33 91.5h39q7 -35 26.5 -54.5t59.5 -19.5t59.5 19.5t26.5 54.5h39q-2 -57 -33 -91.5t-92 -34.5t-92 34.5z" />
    <glyph glyph-name="caron.case" horiz-adv-x="400" 
d="M54 904l22 20l124 -111l124 111l22 -20l-116 -142h-60z" />
    <glyph glyph-name="circumflex.case" horiz-adv-x="400" 
d="M54 774l116 142h60l116 -142l-22 -20l-124 111l-124 -111z" />
    <glyph glyph-name="dieresis.case" horiz-adv-x="400" 
d="M66 834v9q0 41 39 41h8q39 0 39 -41v-9q0 -39 -39 -39h-8q-39 0 -39 39zM248 834v9q0 41 39 41h8q39 0 39 -41v-9q0 -39 -39 -39h-8q-39 0 -39 39z" />
    <glyph glyph-name="dotaccent.case" horiz-adv-x="400" 
d="M154 831v10q0 43 42 43h8q42 0 42 -43v-10q0 -43 -42 -43h-8q-42 0 -42 43z" />
    <glyph glyph-name="grave.case" horiz-adv-x="400" 
d="M95 890l38 50l171 -157l-23 -29z" />
    <glyph glyph-name="hungarumlaut.case" horiz-adv-x="400" 
d="M16 786l141 185l46 -43l-159 -166zM196 786l141 185l46 -43l-159 -166z" />
    <glyph glyph-name="macron.case" horiz-adv-x="400" 
d="M78 857h243v-49h-243v49z" />
    <glyph glyph-name="ring.case" horiz-adv-x="400" 
d="M119.5 788.5q-28.5 27.5 -28.5 76.5v4q0 49 28.5 76.5t78.5 27.5h4q50 0 78.5 -27.5t28.5 -76.5v-4q0 -49 -28.5 -76.5t-78.5 -27.5h-4q-50 0 -78.5 27.5zM201 806q59 0 59 59v4q0 59 -59 59h-3q-58 0 -58 -59v-4q0 -59 58 -59h3z" />
    <glyph glyph-name="tilde.case" horiz-adv-x="400" 
d="M230.5 796q-16.5 6 -37.5 16q-15 7 -30 12.5t-27 5.5q-15 0 -24.5 -9.5t-17.5 -29.5l-36 7q5 42 25 65t51 23q18 0 34 -5.5t39 -16.5q19 -9 31.5 -13.5t24.5 -4.5q15 0 24.5 9.5t17.5 29.5l36 -7q-5 -42 -25 -65t-51 -23q-18 0 -34.5 6z" />
  </font>
</defs>
</svg>
